<svg xmlns="http://www.w3.org/2000/svg" width="350" height="60" viewBox="0 0 660 84" fill="none">
<path fill-rule="evenodd" clip-rule="evenodd" d="M24.7519 24.458H0L17.0023 48.9159L34.6393 38.3894L24.7519 24.458Z" fill="url(#paint0_linear_473_1878)"/>
<path fill-rule="evenodd" clip-rule="evenodd" d="M58.0329 24.458L17.0023 48.9159H41.3534L58.0329 24.458Z" fill="url(#paint1_linear_473_1878)"/>
<path fill-rule="evenodd" clip-rule="evenodd" d="M0 24.4579H24.7519L34.6616 10.5265L17.0023 0L0 24.4579Z" fill="url(#paint2_linear_473_1878)"/>
<path fill-rule="evenodd" clip-rule="evenodd" d="M58.0329 24.4579L17.0023 0H41.3534L58.0329 24.4579Z" fill="url(#paint3_linear_473_1878)"/>
<path d="M279 5.98752C279 6.52058 278.84 7.04167 278.54 7.4849C278.24 7.92812 277.813 8.27356 277.314 8.47755C276.815 8.68155 276.266 8.73494 275.736 8.63095C275.207 8.52695 274.72 8.27023 274.338 7.8933C273.956 7.51637 273.696 7.03614 273.591 6.51332C273.485 5.9905 273.539 5.44857 273.746 4.95608C273.953 4.46359 274.303 4.04267 274.752 3.74651C275.201 3.45036 275.729 3.29228 276.269 3.29228C276.993 3.29228 277.688 3.57625 278.2 4.0817C278.712 4.58715 279 5.2727 279 5.98752ZM278.632 5.98752C278.63 5.52673 278.49 5.0769 278.229 4.69482C277.968 4.31275 277.598 4.01555 277.166 3.84072C276.734 3.66589 276.259 3.62125 275.801 3.71247C275.344 3.8037 274.924 4.0267 274.594 4.3533C274.265 4.67989 274.041 5.09546 273.951 5.54755C273.86 5.99965 273.908 6.46801 274.087 6.89352C274.266 7.31904 274.569 7.68261 274.957 7.93839C275.346 8.19417 275.802 8.33067 276.269 8.33068C276.897 8.32777 277.498 8.07962 277.941 7.6405C278.384 7.20138 278.632 6.60707 278.632 5.98752ZM276.771 6.21852L277.596 7.47261H276.96L276.213 6.28453H275.79V7.47261H275.266V4.49138H276.381C276.502 4.48846 276.622 4.50928 276.735 4.55261C276.847 4.59595 276.95 4.66095 277.037 4.74384C277.125 4.82673 277.194 4.92585 277.242 5.03548C277.29 5.14511 277.315 5.26304 277.317 5.38245C277.327 5.56085 277.279 5.73778 277.181 5.88794C277.083 6.0381 276.939 6.15382 276.771 6.21852ZM275.79 5.83349H276.347C276.406 5.83495 276.464 5.82502 276.519 5.80425C276.573 5.78347 276.623 5.75227 276.666 5.71243C276.708 5.67258 276.742 5.62487 276.766 5.57203C276.79 5.51918 276.803 5.46226 276.804 5.40447C276.803 5.34716 276.79 5.29071 276.766 5.23846C276.742 5.1862 276.708 5.13918 276.665 5.10021C276.623 5.06124 276.572 5.03109 276.518 5.01154C276.463 4.992 276.405 4.98347 276.347 4.98643H275.79V5.83349ZM176.588 12.049H180.657V36.361H176.544L176.588 12.049ZM161.552 11.51C158.929 11.509 156.388 12.4073 154.363 14.0512V12.049H150.261V36.361H154.363V22.6539C154.363 20.772 155.12 18.9672 156.468 17.6365C157.816 16.3058 159.645 15.5583 161.552 15.5583C163.459 15.5583 165.287 16.3058 166.635 17.6365C167.984 18.9672 168.741 20.772 168.741 22.6539V36.361H172.854V22.6539C172.854 21.1895 172.562 19.7395 171.994 18.3867C171.425 17.034 170.593 15.805 169.543 14.77C168.493 13.7351 167.247 12.9144 165.876 12.3551C164.505 11.7957 163.036 11.5085 161.552 11.51ZM142.046 12.038H146.159V35.4369C146.085 38.7799 144.706 41.9655 142.309 44.3289C139.912 46.6923 136.683 48.0508 133.296 48.1209C130.556 48.1907 127.869 47.366 125.652 45.7748C123.435 44.1835 121.812 41.9146 121.035 39.3202H125.494C126.176 40.7815 127.281 42.0112 128.669 42.8548C130.057 43.6983 131.667 44.1182 133.296 44.0616C135.592 43.9848 137.773 43.0503 139.397 41.4472C141.021 39.844 141.968 37.6918 142.046 35.4259V33.4677C140.212 35.1511 137.92 36.2695 135.452 36.6857C132.983 37.102 130.445 36.7979 128.149 35.8108C125.853 34.8238 123.899 33.1966 122.526 31.1291C121.154 29.0616 120.423 26.6437 120.423 24.172C120.423 21.7003 121.154 19.2823 122.526 17.2148C123.899 15.1473 125.853 13.5202 128.149 12.5332C130.445 11.5461 132.983 11.242 135.452 11.6582C137.92 12.0745 140.212 13.1929 142.046 14.8762V12.038ZM142.046 24.139C142.046 22.431 141.533 20.7614 140.571 19.3412C139.61 17.9211 138.243 16.8142 136.644 16.1606C135.046 15.507 133.286 15.336 131.589 15.6692C129.892 16.0024 128.333 16.8249 127.109 18.0326C125.885 19.2403 125.052 20.7791 124.714 22.4542C124.377 24.1294 124.55 25.8657 125.212 27.4437C125.875 29.0217 126.996 30.3704 128.435 31.3193C129.874 32.2682 131.566 32.7747 133.296 32.7747C135.607 32.7747 137.824 31.8724 139.463 30.2648C141.103 28.6572 142.031 26.4748 142.046 24.194V24.139ZM78.5122 15.5033C80.1785 15.5019 81.8106 15.9701 83.2165 16.8529C84.6224 17.7358 85.7436 18.9964 86.4483 20.4867H90.8288C89.9406 17.5684 88.0184 15.0628 85.4134 13.4274C82.8084 11.7919 79.6943 11.1358 76.6397 11.5788C73.5851 12.0219 70.7939 13.5344 68.7757 15.8404C66.7575 18.1464 65.6471 21.0919 65.6471 24.139C65.6471 27.1861 66.7575 30.1316 68.7757 32.4375C70.7939 34.7435 73.5851 36.2561 76.6397 36.6991C79.6943 37.1421 82.8084 36.486 85.4134 34.8506C88.0184 33.2152 89.9406 30.7095 90.8288 27.7913H86.4483C85.7852 29.1935 84.7526 30.394 83.4584 31.2675C82.1641 32.1409 80.6559 32.6551 79.0914 32.7562C77.5269 32.8573 75.9636 32.5417 74.5651 31.8424C73.1665 31.143 71.984 30.0856 71.1412 28.7808C70.2985 27.4759 69.8265 25.9715 69.7746 24.425C69.7226 22.8784 70.0927 21.3465 70.8461 19.9894C71.5995 18.6324 72.7084 17.5 74.057 16.7108C75.4056 15.9216 76.9443 15.5046 78.5122 15.5033ZM118.483 24.139C118.485 26.6508 117.732 29.1067 116.32 31.1961C114.907 33.2855 112.898 34.9143 110.547 35.8765C108.197 36.8388 105.609 37.0911 103.113 36.6016C100.617 36.1121 98.3241 34.9028 96.5245 33.1267C94.725 31.3506 93.4997 29.0876 93.0037 26.624C92.5078 24.1603 92.7634 21.6069 93.7384 19.2867C94.7133 16.9666 96.3637 14.984 98.4807 13.5899C100.598 12.1958 103.086 11.4528 105.631 11.455C107.321 11.4593 108.994 11.7923 110.553 12.435C112.113 13.0776 113.529 14.0174 114.721 15.2005C115.912 16.3835 116.856 17.7867 117.497 19.3299C118.139 20.873 118.466 22.5259 118.46 24.194L118.483 24.139ZM114.381 24.139C114.381 22.431 113.868 20.7614 112.906 19.3412C111.945 17.9211 110.578 16.8142 108.979 16.1606C107.381 15.507 105.621 15.336 103.924 15.6692C102.227 16.0024 100.668 16.8249 99.444 18.0326C98.2203 19.2403 97.387 20.7791 97.0494 22.4542C96.7118 24.1294 96.885 25.8657 97.5473 27.4437C98.2095 29.0217 99.331 30.3704 100.77 31.3193C102.209 32.2682 103.9 32.7747 105.631 32.7747C107.937 32.766 110.147 31.8603 111.781 30.2539C113.415 28.6475 114.341 26.4701 114.359 24.194L114.381 24.139ZM248.649 11.51C246.026 11.509 243.485 12.4073 241.459 14.0512V12.049H237.358V36.361H241.459V22.6539C241.459 20.772 242.217 18.9672 243.565 17.6365C244.913 16.3058 246.742 15.5583 248.649 15.5583C250.555 15.5583 252.384 16.3058 253.732 17.6365C255.081 18.9672 255.838 20.772 255.838 22.6539V36.361H259.951V22.6539C259.951 21.1895 259.659 19.7395 259.09 18.3867C258.522 17.034 257.69 15.805 256.64 14.77C255.59 13.7351 254.344 12.9144 252.973 12.3551C251.602 11.7957 250.132 11.5085 248.649 11.51ZM229.143 12.049H233.256V36.361H229.143V33.4897C227.607 34.8897 225.748 35.8988 223.728 36.4294C221.708 36.96 219.587 36.9962 217.549 36.5348C215.511 36.0733 213.619 35.1282 212.035 33.7815C210.451 32.4347 209.224 30.7269 208.46 28.8062C207.696 26.8855 207.419 24.8099 207.651 22.7594C207.884 20.7089 208.62 18.7454 209.796 17.0392C210.972 15.333 212.551 13.9356 214.398 12.9683C216.244 12.0009 218.302 11.4928 220.393 11.488C223.639 11.4843 226.765 12.695 229.143 14.8762V12.049ZM229.143 24.15C229.143 22.442 228.63 20.7724 227.668 19.3522C226.707 17.9321 225.34 16.8252 223.741 16.1716C222.143 15.518 220.383 15.347 218.686 15.6802C216.989 16.0134 215.43 16.8359 214.206 18.0436C212.982 19.2513 212.149 20.7901 211.811 22.4652C211.474 24.1404 211.647 25.8768 212.309 27.4547C212.971 29.0327 214.093 30.3814 215.532 31.3303C216.971 32.2792 218.662 32.7857 220.393 32.7857C221.542 32.7915 222.681 32.5738 223.745 32.1452C224.809 31.7165 225.776 31.0853 226.593 30.2875C227.41 29.4897 228.059 28.5409 228.504 27.4954C228.949 26.4499 229.182 25.328 229.187 24.194L229.143 24.15ZM273.672 16.0533V12.005H267.597V5.40447H263.484V28.2423C263.484 30.3926 264.35 32.4548 265.89 33.9753C267.431 35.4958 269.52 36.3499 271.699 36.3499H273.75V32.3016H271.699C270.61 32.2987 269.567 31.8698 268.798 31.1088C268.029 30.3479 267.597 29.317 267.597 28.2423V16.0973L273.672 16.0533ZM178.65 3.28127C178.11 3.28128 177.581 3.43963 177.132 3.73627C176.683 4.03292 176.333 4.45453 176.126 4.94765C175.92 5.44078 175.866 5.98325 175.973 6.50637C176.079 7.02949 176.34 7.50973 176.723 7.88622C177.106 8.26271 177.594 8.51853 178.124 8.62128C178.655 8.72403 179.204 8.66907 179.703 8.46339C180.202 8.2577 180.628 7.91053 180.926 7.46586C181.225 7.02119 181.383 6.49902 181.381 5.96549C181.381 5.61207 181.31 5.26212 181.173 4.93574C181.036 4.60935 180.834 4.31297 180.581 4.06357C180.327 3.81417 180.026 3.61668 179.694 3.48244C179.363 3.34819 179.008 3.27982 178.65 3.28127ZM205.401 12.082H184.848V16.1413H200.051L184.848 32.3456V36.394H205.379V32.3456H190.164L205.368 16.1413L205.401 12.082Z" fill="white"/>
<path d="M266.455 54.9905C264.813 54.989 263.221 55.5588 261.953 56.6021V55.3334H259.38V70.7464H261.953V62.0541C261.953 60.8605 262.427 59.7158 263.271 58.8718C264.116 58.0278 265.261 57.5536 266.455 57.5536C267.649 57.5536 268.794 58.0278 269.638 58.8718C270.483 59.7158 270.957 60.8605 270.957 62.0541V70.7464H273.529V62.0541C273.527 60.1799 272.781 58.3833 271.454 57.0589C270.128 55.7344 268.33 54.9905 266.455 54.9905Z" fill="#06C7CC"/>
<path d="M160.204 62.7416C159.616 62.437 158.996 62.1998 158.356 62.0343C157.687 61.8586 157.012 61.7086 156.343 61.5886C155.73 61.4824 155.124 61.3392 154.529 61.16C154.04 61.0245 153.593 60.7672 153.23 60.412C153.048 60.2135 152.911 59.978 152.829 59.7217C152.747 59.4654 152.722 59.1944 152.754 58.9272C152.787 58.6601 152.877 58.4032 153.018 58.1741C153.159 57.9451 153.349 57.7493 153.573 57.6003C154.137 57.206 154.887 57.0067 155.802 57.0067C156.64 56.9797 157.466 57.2174 158.161 57.686C158.456 57.8784 158.709 58.1302 158.902 58.4253C159.095 58.7205 159.224 59.0526 159.282 59.4005L159.295 59.4905H161.854L161.839 59.3705C161.763 58.7141 161.548 58.0812 161.21 57.5132C160.872 56.9452 160.418 56.455 159.878 56.0744C158.71 55.2462 157.307 54.817 155.875 54.8507C154.201 54.8507 152.835 55.2665 151.815 56.0851C151.323 56.4617 150.926 56.9491 150.658 57.5077C150.389 58.0662 150.256 58.6802 150.269 59.2998C150.252 59.9543 150.395 60.6031 150.685 61.19C150.936 61.6888 151.317 62.1108 151.787 62.4115C152.266 62.705 152.776 62.9451 153.307 63.1273C153.873 63.3271 154.457 63.4748 155.05 63.5688C155.635 63.6609 156.212 63.7831 156.765 63.9224C157.27 64.0507 157.767 64.2103 158.253 64.4003C158.656 64.5571 159.008 64.8218 159.271 65.1654C159.532 65.5278 159.666 65.9662 159.653 66.4127C159.658 66.77 159.575 67.1231 159.41 67.4403C159.246 67.7575 159.005 68.0288 158.709 68.23C158.066 68.7058 157.209 68.9458 156.171 68.9458C155.232 68.9784 154.307 68.7112 153.53 68.1828C153.195 67.9507 152.915 67.649 152.708 67.2983C152.501 66.9476 152.373 66.5562 152.332 66.1512V66.0569H149.894L149.907 66.1748C149.964 66.8871 150.169 67.5795 150.511 68.2072C150.853 68.8348 151.322 69.3837 151.89 69.818C153.043 70.7074 154.518 71.1596 156.274 71.1596C157.951 71.1596 159.361 70.7053 160.467 69.8073C160.998 69.401 161.425 68.8765 161.717 68.2756C162.008 67.6747 162.155 67.014 162.146 66.3462C162.165 65.562 161.974 64.787 161.591 64.1024C161.265 63.5275 160.785 63.0559 160.204 62.7416Z" fill="#06C7CC"/>
<path d="M171.15 54.9628C170.095 54.9394 169.046 55.1333 168.069 55.5326C167.092 55.9319 166.208 56.528 165.471 57.2838C163.932 58.834 163.162 60.742 163.162 63.008C163.162 65.2739 163.932 67.182 165.471 68.7322C166.99 70.2197 169.031 71.0529 171.158 71.0529C173.284 71.0529 175.325 70.2197 176.844 68.7322C178.395 67.1834 179.17 65.2754 179.17 63.008C179.17 60.7406 178.396 58.8325 176.848 57.2838C176.107 56.5284 175.22 55.9328 174.24 55.5336C173.26 55.1344 172.208 54.9402 171.15 54.9628ZM175.223 67.1634C174.692 67.7008 174.059 68.1275 173.362 68.4187C172.665 68.7099 171.917 68.8599 171.161 68.8599C170.405 68.8599 169.657 68.7099 168.959 68.4187C168.262 68.1275 167.629 67.7008 167.098 67.1634C166.04 66.0357 165.452 64.5476 165.452 63.0015C165.452 61.4555 166.04 59.9674 167.098 58.8397C168.178 57.7632 169.64 57.1586 171.165 57.1586C172.69 57.1586 174.152 57.7632 175.232 58.8397C176.297 59.9612 176.891 61.4486 176.891 62.9951C176.891 64.5416 176.297 66.0291 175.232 67.1506L175.223 67.1634Z" fill="#06C7CC"/>
<path d="M187.559 47.9908C185.931 47.9908 184.634 48.4516 183.7 49.3645C182.765 50.2775 182.302 51.6383 182.302 53.4085V55.1809H179.241V57.5532H182.302V70.8404H184.832V57.5532H189.196V55.1809H184.832V53.4407C184.832 51.3704 185.859 50.3632 187.97 50.3632C188.338 50.3581 188.705 50.3984 189.064 50.4832L189.196 50.5175V48.1601L189.111 48.143C188.6 48.0394 188.08 47.9884 187.559 47.9908Z" fill="#06C7CC"/>
<path d="M193.319 51.0171H190.989V65.5558C190.989 67.326 191.444 68.659 192.354 69.5548C193.265 70.4506 194.529 70.8985 196.147 70.8985C196.651 70.9014 197.154 70.8489 197.647 70.742V68.6139C197.298 68.7059 196.937 68.7477 196.575 68.7383C194.41 68.7383 193.328 67.6667 193.33 65.5236V57.4463H197.647V55.2883H193.319V51.0171Z" fill="#06C7CC"/>
<path d="M206.713 67.4778L201.733 55.2644H199.015L205.648 70.7503H207.798L214.399 55.2644H211.651L206.713 67.4778Z" fill="#06C7CC"/>
<path d="M231.976 62.7415C231.389 62.437 230.769 62.1997 230.128 62.0343C229.461 61.8585 228.784 61.7085 228.115 61.5885C227.503 61.4821 226.898 61.339 226.304 61.1599C225.814 61.0245 225.367 60.7671 225.005 60.412C224.822 60.2138 224.685 59.9784 224.602 59.722C224.52 59.4656 224.494 59.1943 224.526 58.9269C224.559 58.6595 224.649 58.4024 224.791 58.1734C224.933 57.9443 225.123 57.7488 225.348 57.6002C225.911 57.2059 226.662 57.0066 227.577 57.0066C228.411 56.9817 229.231 57.2194 229.922 57.686C230.219 57.8777 230.471 58.1292 230.665 58.4245C230.858 58.7198 230.987 59.0522 231.044 59.4004L231.059 59.4904H233.623L233.608 59.3704C233.531 58.7138 233.316 58.0807 232.978 57.5127C232.64 56.9447 232.185 56.4545 231.644 56.0744C230.477 55.2466 229.074 54.8174 227.644 54.8507C225.969 54.8507 224.601 55.2664 223.583 56.0851C223.091 56.4616 222.694 56.9489 222.425 57.5074C222.156 58.0659 222.022 58.68 222.035 59.2997C222.019 59.9541 222.162 60.6027 222.451 61.1899C222.703 61.6884 223.085 62.1103 223.555 62.4115C224.034 62.705 224.544 62.945 225.075 63.1273C225.642 63.3273 226.225 63.475 226.818 63.5687C227.401 63.6609 227.978 63.783 228.533 63.9223C229.038 64.0503 229.534 64.2099 230.019 64.4003C230.423 64.5559 230.775 64.8208 231.037 65.1653C231.3 65.527 231.435 65.9658 231.421 66.4126C231.426 66.7699 231.343 67.123 231.179 67.4402C231.014 67.7574 230.773 68.0288 230.478 68.2299C229.834 68.7057 228.977 68.9457 227.939 68.9457C227 68.9784 226.075 68.7111 225.298 68.1828C224.964 67.9505 224.683 67.6487 224.476 67.2981C224.269 66.9474 224.14 66.5562 224.098 66.1512V66.0569H221.662L221.675 66.1747C221.731 66.8873 221.936 67.58 222.278 68.2078C222.62 68.8356 223.09 69.3843 223.658 69.818C224.809 70.7073 226.287 71.1595 228.042 71.1595C229.717 71.1595 231.127 70.7052 232.236 69.8073C232.766 69.401 233.194 68.8764 233.485 68.2755C233.777 67.6746 233.923 67.0139 233.914 66.3462C233.94 65.5638 233.755 64.7889 233.378 64.1024C233.049 63.5251 232.563 63.0532 231.976 62.7415Z" fill="#06C7CC"/>
<path d="M249.534 54.9628C248.479 54.9397 247.43 55.1338 246.453 55.5331C245.476 55.9324 244.592 56.5283 243.855 57.2837C242.321 58.8296 241.554 60.7377 241.554 63.0079C241.554 65.2782 242.323 67.1862 243.861 68.7321C245.379 70.2165 247.419 71.0476 249.542 71.0476C251.666 71.0476 253.705 70.2165 255.223 68.7321C256.361 67.6087 257.139 66.1718 257.456 64.6048C257.774 63.0379 257.617 61.4119 257.006 59.9343C256.395 58.4568 255.357 57.1948 254.026 56.3093C252.694 55.4238 251.129 54.955 249.529 54.9628H249.534ZM253.607 67.1634C253.076 67.7008 252.443 68.1276 251.745 68.4188C251.048 68.71 250.299 68.86 249.543 68.86C248.787 68.86 248.039 68.71 247.341 68.4188C246.644 68.1276 246.011 67.7008 245.48 67.1634C244.422 66.0356 243.833 64.5475 243.833 63.0015C243.833 61.4554 244.422 59.9674 245.48 58.8396C246.559 57.7631 248.022 57.1585 249.547 57.1585C251.071 57.1585 252.534 57.7631 253.613 58.8396C254.678 59.9613 255.272 61.4487 255.272 62.9951C255.272 64.5414 254.678 66.0288 253.613 67.1505L253.607 67.1634Z" fill="#06C7CC"/>
<path d="M216.656 70.7396H219.233V55.3115H216.684L216.656 70.7396Z" fill="#06C7CC"/>
<path d="M217.984 49.7439C217.644 49.7439 217.313 49.8445 217.031 50.0328C216.749 50.2212 216.529 50.489 216.399 50.8023C216.269 51.1155 216.235 51.4603 216.301 51.7928C216.368 52.1254 216.531 52.4309 216.771 52.6707C217.011 52.9104 217.316 53.0737 217.649 53.1399C217.982 53.206 218.326 53.1721 218.64 53.0423C218.953 52.9126 219.221 52.6928 219.41 52.4109C219.598 52.1289 219.699 51.7975 219.699 51.4584C219.699 51.0037 219.518 50.5676 219.196 50.2461C218.875 49.9245 218.438 49.7439 217.984 49.7439Z" fill="#06C7CC"/>
<path d="M236.585 70.7396H239.162V55.3115H236.613L236.585 70.7396Z" fill="#06C7CC"/>
<path d="M237.91 49.7439C237.571 49.7439 237.239 49.8445 236.957 50.0329C236.675 50.2213 236.455 50.489 236.326 50.8023C236.196 51.1156 236.162 51.4603 236.228 51.7929C236.294 52.1255 236.458 52.431 236.697 52.6707C236.937 52.9105 237.243 53.0738 237.576 53.1399C237.908 53.2061 238.253 53.1721 238.566 53.0424C238.88 52.9126 239.148 52.6929 239.336 52.4109C239.525 52.129 239.625 51.7975 239.625 51.4584C239.627 51.2328 239.584 51.0091 239.498 50.8003C239.413 50.5915 239.286 50.4018 239.127 50.2423C238.967 50.0827 238.777 49.9565 238.569 49.871C238.36 49.7854 238.136 49.7422 237.91 49.7439Z" fill="#06C7CC"/>
<defs>
<linearGradient id="paint0_linear_473_1878" x1="-0.635444" y1="35.0446" x2="34.0508" y2="35.0446" gradientUnits="userSpaceOnUse">
<stop stop-color="#3D54CE"/>
<stop offset="1" stop-color="#35CACF"/>
</linearGradient>
<linearGradient id="paint1_linear_473_1878" x1="14.8151" y1="35.0446" x2="55.9093" y2="35.0446" gradientUnits="userSpaceOnUse">
<stop stop-color="#13457D"/>
<stop offset="1" stop-color="#279698"/>
</linearGradient>
<linearGradient id="paint2_linear_473_1878" x1="-0.184387" y1="10.5548" x2="34.5278" y2="10.5548" gradientUnits="userSpaceOnUse">
<stop stop-color="#090086"/>
<stop offset="1" stop-color="#2F96A9"/>
</linearGradient>
<linearGradient id="paint3_linear_473_1878" x1="14.8151" y1="10.5548" x2="55.9093" y2="10.5548" gradientUnits="userSpaceOnUse">
<stop stop-color="#3B62CA"/>
<stop offset="1" stop-color="#93DFE3"/>
</linearGradient>
</defs>
</svg>