<svg class="devbridge-logo" height="29" viewBox="0 0 134 29" width="134" xmlns="http://www.w3.org/2000/svg"><title>Devbridge logotype</title><g clip-rule="evenodd" fill-rule="evenodd"><path d="m1 0h26.2v27.7h-26.2z" fill="#fff"/><path d="m28.9 0v28.9h-28.9v-28.9zm-9.1 16.5c-.9 0-1.7-.5-2-1.3s-.2-1.7.4-2.4 1.5-.8 2.4-.5 1.3 1.1 1.3 2c0 1.2-.9 2.2-2.1 2.2zm0-7c-.7 0-1.5.2-2.1.5v-4.8h-2.8v9.2c0 2.7 2.2 4.8 4.8 4.8 2.7 0 4.8-2.1 4.8-4.8.1-2.7-2-4.9-4.7-4.9zm-10.7 10.7c-1.2 0-2.2-1-2.2-2.2s1-2.2 2.2-2.2 2.2 1 2.2 2.2-1.1 2.2-2.2 2.2zm4.6-3.4v-.2c-.1-.5-.2-1-.2-1.5v-6.1h-2.8v4.6c-.5-.2-1.1-.3-1.7-.3-2.3 0-4.3 1.6-4.7 3.9s.7 4.5 2.8 5.4 4.5.2 5.9-1.6c.8.9 1.8 1.6 3 2l1.3-2.3c-1.7-.8-3-2.2-3.6-3.9z" fill="#ff3454"/><g class="devbridge-logo__letter-fill" fill="#fff" transform="translate(36.105263 7.631579)"><path d="m95.5 2.7h.2c.2 0 .4 0 .4-.3s-.1-.2-.4-.2c-.1 0-.2 0-.2 0zm0 1h-.4v-1.8h.7c.2 0 .4 0 .6.1.1.1.2.2.2.4s-.2.4-.4.4c.2.1.3.2.3.4s.1.3.1.4h-.4c-.1-.1-.1-.3-.2-.4 0-.2-.1-.3-.4-.3h-.2zm-1.1-.9c0 .4.1.7.4 1s.6.4 1 .4.7-.2 1-.4.4-.6.4-1c0-.5-.3-1-.7-1.2s-1-.2-1.4 0-.7.7-.7 1.2zm3.2 0c0 .5-.2.9-.5 1.3s-.8.5-1.3.5c-1 0-1.8-.8-1.8-1.8s.8-1.8 1.8-1.8c.5 0 .9.2 1.3.5s.5.8.5 1.3z"/><path d="m.4 1.6h4.1c.8 0 1.5.1 2.3.3.7.2 1.4.5 2 1 .7.5 1.2 1.1 1.5 1.8.4.9.6 1.8.6 2.7s-.2 1.8-.6 2.6c-.4.7-.9 1.3-1.5 1.8s-1.3.8-2 1c-.8.2-1.5.4-2.3.4h-4.1zm3.8 9.8c.5 0 1.1-.1 1.6-.2s1-.3 1.4-.6c.5-.4.8-.8 1.1-1.3.3-.6.4-1.3.4-1.9 0-.7-.1-1.4-.4-2-.3-.5-.6-.9-1.1-1.2-.4-.3-.9-.5-1.4-.6-.6-.1-1.1-.2-1.6-.2h-1.7v8zm8.6-9.8h7.6v1.8h-5.6v2.9h5.3v1.7h-5.3v3.3h5.9v1.8h-7.9zm8.5 0h2.3l3.2 8.9 3.2-8.9h2.2l-4.6 11.5h-1.8zm12.1 0h4.5c.4 0 .9.1 1.3.2s.8.3 1.1.5.6.5.8.9.3.9.3 1.3c0 .6-.2 1.1-.5 1.6-.4.4-.9.8-1.5.9.7.1 1.3.4 1.8.9s.7 1.2.7 1.9c0 .5-.1 1.1-.4 1.5-.2.4-.6.8-1 1-.4.3-.9.5-1.4.6s-1 .2-1.5.2h-4.1zm2 9.8h1.8.9c.3 0 .6-.1.8-.2s.5-.3.6-.5c.2-.3.3-.6.3-.9 0-.5-.2-1-.6-1.3-.6-.3-1.2-.4-1.9-.4h-1.9zm0-5.1h1.8c.5 0 1.1-.1 1.5-.4s.6-.7.5-1.2c0-.4-.2-.9-.5-1.1-.5-.2-1.1-.4-1.6-.3h-1.7zm8.5-4.7h4c.5 0 1 .1 1.5.2s.9.3 1.4.5c.4.3.7.6.9 1 .3.5.4 1 .4 1.5 0 .7-.2 1.5-.7 2s-1.2.9-1.9 1.1l3.1 5.1h-2.4l-2.7-4.9h-1.5v4.9h-2v-11.4zm3.7 5c.3 0 .6 0 .9-.1.3 0 .6-.1.8-.2s.4-.3.6-.5c.1-.3.2-.6.2-.9s-.1-.5-.2-.8c-.2-.2-.4-.4-.6-.5s-.5-.2-.7-.2c-.3 0-.5 0-.8 0h-1.8v3.2zm6.6-5h2v11.5h-2zm4.5 0h4.1c.8 0 1.5.1 2.3.3.7.2 1.4.5 2.1 1 .6.5 1.2 1.1 1.5 1.8.4.9.6 1.8.5 2.7 0 .9-.2 1.8-.6 2.6-.4.7-.9 1.3-1.5 1.8s-1.3.8-2.1 1c-.7.2-1.5.3-2.3.3h-4.1zm3.8 9.8c.5 0 1-.1 1.5-.2s1-.3 1.4-.6.8-.7 1-1.2c.3-.6.4-1.3.4-1.9 0-.7-.1-1.4-.4-2-.2-.5-.6-.9-1-1.2s-.9-.5-1.4-.6-1-.2-1.5-.2h-1.7v8h1.7zm18.8 1.2c-.6.3-1.3.5-1.9.7-.8.2-1.6.2-2.4.2-.9 0-1.7-.1-2.5-.4-.7-.3-1.4-.7-2-1.3-.6-.5-1-1.2-1.3-1.9-.3-.8-.5-1.6-.5-2.5s.1-1.7.5-2.5c.3-.7.8-1.3 1.3-1.8.6-.5 1.2-.9 2-1.2s1.6-.5 2.4-.5c.9 0 1.7.1 2.5.4.7.2 1.3.6 1.8 1.1l-1.4 1.5c-.3-.4-.8-.7-1.2-.9-.6-.2-1.1-.3-1.7-.3-.5 0-1 .1-1.5.3-.6.2-1 .5-1.4.9s-.6.8-.8 1.3c-.1.5-.2 1.1-.2 1.7s.1 1.1.3 1.7c.2.5.5 1 .8 1.3.4.4.8.7 1.3.9s1.1.3 1.7.3c.8 0 1.6-.1 2.3-.4v-2.9h-2.5v-1.7h4.4zm2.5-11h7.6v1.8h-5.6v2.9h5.3v1.7h-5.3v3.3h5.9v1.8h-7.9z"/></g></g></svg>