<svg xmlns:xlink="http://www.w3.org/1999/xlink" xmlns="http://www.w3.org/2000/svg" id="Layer_1" data-name="Layer 1" viewBox="0 0 334.52 356.2" class="title-section__robot" alt="Hackathon robot" width="334.52" height="356.2"><defs><style>
      .cls-1 {
        fill: #fff;
      }
    </style></defs><path class="cls-1" d="m143.52,115.43s0,0,0,0l-38.52-7.35s-.09,0-.14-.01c-.05,0-.09-.01-.14-.01-.28,0-.55.11-.77.29-.29.24-.47.6-.47.98l-.18,17.97h0s-.22,22.64-.22,22.64c0,.63.45,1.18,1.08,1.28l19.76,3.18s0,0,0,0l19.16,3.08c.07.01.14.02.2.02.3,0,.6-.11.83-.31.29-.24.45-.6.45-.98v-39.52c0-.05-.02-.11-.02-.16,0-.04,0-.09-.01-.13,0-.01,0-.02-.01-.03,0-.03-.02-.06-.03-.08-.01-.04-.03-.08-.05-.12,0,0,0,0,0,0-.02-.04-.03-.09-.06-.13-.02-.04-.05-.07-.08-.1-.03-.04-.05-.07-.08-.1-.02-.02-.04-.05-.06-.07-.04-.04-.1-.07-.15-.11-.03-.02-.07-.05-.1-.07-.02,0-.03-.02-.04-.03,0,0,0,0,0,0-.1-.05-.2-.08-.3-.1-.01,0-.02,0-.03-.01h0Zm-37.49-4.54l34.16,6.51-16.38,12.22-17.93-3.37.15-15.36Zm19.38,41.15v-20.4l4.24-3.16,12.36-9.22v35.46l-16.6-2.67Zm-19.55-23.18l16.99,3.19v19.57l-17.18-2.76.2-20.01Z" fill="#FFFFFF" stroke-width="3" stroke="white"/><path class="cls-1" d="m217.36,169.13c0,.62.46,1.14,1.07,1.24l35.94,5.96c.07.01.14.02.21.02.31,0,.61-.11.85-.32.29-.25.45-.63.43-1.01l-1.49-38.22s-.01-.07-.02-.11c0-.03,0-.05,0-.08,0-.02-.02-.04-.02-.06-.01-.05-.02-.09-.04-.14-.01-.03-.03-.07-.04-.1-.02-.03-.03-.07-.05-.1-.03-.05-.06-.09-.1-.14-.02-.03-.05-.06-.07-.09-.02-.02-.03-.04-.04-.05-.06-.06-.13-.1-.2-.15-.03-.02-.05-.04-.07-.05,0,0-.01,0-.02-.01,0,0,0,0,0,0-.01,0-.03-.01-.05-.02-.1-.05-.2-.08-.3-.1,0,0-.02,0-.03,0l-35.05-6.25c-.28-.05-.57,0-.82.13-.03.02-.05.04-.08.06-.05.03-.11.06-.15.1h0s0,0-.01.01c-.14.12-.25.27-.33.43,0,0,0,0,0,0-.07.17-.11.35-.11.54h0s.6,38.52.6,38.52Zm27.77,3.07l-11.14-1.85-.57-19.83,13.15-8.14,5.32-3.29,1.34,34.46-8.11-1.34Zm4.44-34.69l-16.08,9.95-1.63,1.01-12.29-2.12-.22-14.24,30.22,5.39Zm-29.96,11.45l11.26,1.94.55,19.02-11.51-1.91-.29-19.06Z" fill="#FFFFFF" stroke="white" stroke-width="3"/><path class="cls-1" d="m334.31,347.78s.01-.02.02-.04c.06-.1.1-.21.14-.32,0-.03.02-.05.02-.08.02-.11.04-.23.03-.34l-2.46-41.4c-.04-.62-.51-1.12-1.13-1.2l-34.29-4.12-1.81-39.72c-.03-.61-.49-1.12-1.1-1.21l-34.68-4.99-.76-22.87,45.06,6.34c.06,0,.12.01.18.01.19,0,.37-.04.55-.12l22.49-10.57s.02-.01.03-.02c.1-.05.2-.11.29-.19,0,0,0-.01.01-.02.02-.01.03-.03.04-.05.07-.07.13-.15.18-.24.02-.03.03-.06.05-.09.05-.1.09-.2.11-.31,0,0,0-.02,0-.02.02-.1.02-.19.02-.29l-4.02-76.99c-.03-.59-.47-1.09-1.05-1.19l-32.95-5.93-1.88-36.51c-.03-.59-.45-1.08-1.03-1.19l-33.26-6.65-1.45-36.37c-.02-.59-.44-1.08-1.02-1.2l-34.45-7.24-.87-35.62c-.01-.59-.43-1.09-1.01-1.22L142.36.02s-.05,0-.07,0c-.04,0-.07,0-.11-.01-.08,0-.16,0-.24,0-.03,0-.07,0-.1.01-.1.02-.2.05-.29.09,0,0-.02,0-.03,0-.09.04-.17.09-.25.16-.01,0-.02.02-.03.03,0,0-.02.01-.03.02l-18.17,16.48c-.27.24-.42.59-.42.95v15.29l-17.83-3.54s-.04,0-.06,0c-.03,0-.07,0-.1,0-.08,0-.16,0-.24,0-.03,0-.06,0-.1.01-.1.02-.19.05-.28.09-.01,0-.03,0-.04.01-.09.04-.17.1-.25.16-.01,0-.02.02-.03.03,0,0-.02,0-.02.02l-17.77,16.33c-.26.24-.41.58-.41.94v17.29l-20.49-3.61s-.03,0-.04,0c-.03,0-.06,0-.09,0-.08,0-.16,0-.25,0-.03,0-.07,0-.1.02-.09.02-.18.05-.27.09-.02,0-.03.01-.05.02-.09.04-.17.1-.25.16-.01,0-.02.02-.03.03,0,0-.02,0-.02.02l-16.78,15.74c-.25.24-.4.56-.4.91l-.37,19.54-22.61-3.75s-.02,0-.03,0c-.03,0-.05,0-.08,0-.09,0-.17,0-.26,0-.03,0-.07,0-.1.02-.09.02-.17.04-.26.08-.02,0-.04.01-.06.02-.09.04-.17.09-.25.16-.01,0-.02.02-.03.03,0,0-.02,0-.02.02l-16.23,14.97c-.25.23-.4.56-.41.91l-2.23,82.13s0,0,0,0c0,.04.01.09.02.13,0,.08,0,.16.03.24,0,0,0,0,0,0,0,.03.03.06.04.09.03.08.06.17.11.24.03.05.07.08.1.13.04.05.08.11.13.15.05.04.11.08.16.11.04.03.08.07.13.09,0,0,0,0,0,0,.02,0,.03.01.05.02.09.04.18.07.28.08.01,0,.02,0,.04.01l79.17,12.12-.2,24.66-21.16-2.98c-.06,0-.12,0-.18,0-.02,0-.05,0-.07,0-.1,0-.21.03-.31.06-.02,0-.04.02-.07.03-.08.03-.15.06-.22.11-.01,0-.03.01-.04.02l-17.52,11.77c-.35.23-.56.62-.57,1.04l-.48,28.62-24.15-2.92s-.1,0-.15,0c-.03,0-.06,0-.09,0-.11,0-.21.02-.31.06-.01,0-.02.01-.04.02-.09.03-.17.07-.25.12-.01,0-.03.01-.04.02l-16.46,10.95c-.35.23-.56.62-.57,1.03L0,322.32c0,.07.01.14.02.21,0,.03,0,.06,0,.08,0,0,0,.01,0,.02.03.12.07.24.13.35.02.03.04.05.05.07.05.08.11.15.18.22.03.03.07.06.11.09.04.03.07.07.12.09.02.01.05.02.08.03.04.02.09.04.14.06.08.03.15.05.23.06.03,0,.05.02.08.02l42.37,4.39s.09,0,.13,0c.21,0,.42-.05.6-.15l17.8-9.46c.06-.03.1-.08.15-.11.03-.02.07-.04.1-.06.01-.01.02-.03.03-.04.12-.11.21-.24.28-.38,0-.02,0-.04.02-.05.05-.13.08-.27.09-.41,0-.02.01-.04.01-.06l.42-30.6,20.42,2.43-.1,41.92s.01.09.02.14c0,.03,0,.05,0,.07,0,.02.01.03.01.04.02.11.06.22.11.33,0,.01,0,.02.01.03.06.11.14.21.22.29.03.03.06.05.09.07.04.04.08.08.13.11.03.02.06.02.08.04.05.03.1.05.15.07.08.03.15.05.23.07.03,0,.06.02.09.02l39.91,4.39s.09,0,.14,0c.18,0,.36-.04.52-.11l19.92-8.9c.1-.04.18-.11.26-.17.02-.02.05-.03.08-.05,0,0,0,0,0,0,0,0,.01-.02.02-.03.08-.08.15-.17.21-.27.01-.02.03-.05.04-.07.05-.11.1-.22.12-.34,0-.02,0-.04,0-.05,0-.06.02-.13.02-.19l-.23-29.98,53.79,6.61.75,40.2s0,.06.01.09c0,.02,0,.03,0,.05,0,.02.01.04.02.06.02.11.05.21.09.31,0,.02.01.04.03.06.06.11.13.21.22.3.02.02.05.04.07.06.04.04.08.08.12.11.03.02.06.03.09.04.05.03.1.05.16.07.08.03.15.05.24.07.03,0,.06.02.1.03l37.23,4.07s.09,0,.14,0c.15,0,.31-.03.45-.08l21.89-8.29s0,0,0,0c.03-.01.05-.03.08-.05.11-.05.22-.11.31-.2,0,0,.02,0,.02-.02.08-.08.15-.16.21-.26.01-.02.02-.05.04-.07.05-.1.1-.2.12-.31,0-.02.01-.03.01-.05.02-.1.03-.19.03-.29l-.92-28.75,10.69,1.44,1.36,39.25s0,.04,0,.06c0,.01,0,.02,0,.04,0,.02.01.04.02.06.02.11.05.21.09.31.01.02.02.05.03.07.06.11.13.21.22.3.02.02.04.04.06.06.04.04.08.08.13.11.03.02.06.03.09.05.05.03.1.05.16.08.08.03.16.05.24.07.03,0,.06.02.1.03l35.3,3.92s.09,0,.14,0c.14,0,.27-.02.4-.07l23.65-7.84s.02-.01.04-.02c.05-.02.1-.05.15-.08.09-.05.17-.09.25-.16.01-.01.03-.02.05-.03.07-.07.13-.15.19-.23Zm-73.44-40.03l-.31-9.83,13.13,1.81,16.84,2.32-17.81,7.3-11.85-1.6Zm-102.08-22.33l58.51,7.69-16.81,7.62-54.87-6.74-.08-10.3,13.24,1.74Zm-98.02-12.12l-.59,42.58-40.85-4.13.84-43.35,40.59,4.9Zm158.77-24.66l-19.15-2.69-.48-24.05,18.42-10.29.1,3.03,1.12,34Zm3.63,42.62l-.64-25.89,12.18,1.93.64,25.27-12.18-1.31Zm33.43-33.76l.28,8.17,1.01,29.31-19.98-2.34-.65-25.66,4.78-2.35,14.55-7.14Zm-3.07-1.35l-15.33,7.53-2.43,1.19-13.3-2.1-.17-7.09-.1-4.07,26.59,3.86,4.74.69Zm-37.87-45.99l-17.29,9.66-52.76-7.89v-12.59l70.05,10.82Zm-18.31,12.1l.47,23.52-52.22-6.91v-24.35l51.74,7.74Zm-54.28,72.86s0,0,0,0l.23,30.01-38.2-4.08v-42.09l19.07,2.21s0,0,0,0l15.98,1.85,2.82.33.09,11.77Zm-37.97-18.74v-26.74l18.18,2.35-.23,26.47-17.95-2.08Zm20.74-24.76l17.2-9.46-.07,38.61-17.36-2.01.23-27.14Zm14.53-10.92l-16.05,8.83-19.22-2.48v-11.54l33.98,5,1.29.19Zm-53.75-35.84l15.91-10.71v38.4l-16.12-2.44.21-25.24Zm15.91,30.29v40.92l-39.18-5.03.42-41.34,38.75,5.45Zm-16.5,93.9l.09-40.3,16.4-9.06v41.69l-10.88,5.06-5.62,2.61Zm59.49-47.96l.03-14.22.04-25.41,74.02,9.79.31,12.66s0,0,0,0l.67,27.05-73.37-9.64-1.69-.22Zm56.46,21.77l18.69-8.48.89,36.64.08,3.41-18.95,7.09-.72-38.66Zm22.22,31.29l-.98-40.3,34.74,3.75.36,11.32h0l.92,28.8-35.05-3.56Zm49.99-22.64l15.97-6.55,4.04-1.66,1.6,38.99-20.3,6.93-1.31-37.72Zm57.67,34.13l-23.11-2.48-10.4-1.11-1.58-38.44-.03-.73,32.81,3.94,2.3,38.82Zm-37.81-45.69l-5.4-.74-28.2-3.89-1.32-38.35,33.18,4.77,1.74,38.21Zm9.27-64.7l-45.13-6.35-.4-12.12,63.87,9.85-18.34,8.63ZM213.63,53.73c.01.59.44,1.1,1.02,1.22l34.47,7.24,1.45,36.38c.02.59.45,1.09,1.03,1.21l33.28,6.66,1.88,36.53c.03.59.47,1.09,1.05,1.19l32.96,5.93,3.89,74.41-67.99-10.48c-.09-.01-.19-.02-.28-.01-.28.02-.55.13-.76.32-.29.25-.44.62-.43,1l1.29,38.68-25.39-3.69-8.96-1.3-1.3-39.59s0,0,0,0c0-.04-.01-.07-.02-.11,0-.03,0-.05,0-.08,0-.02-.02-.04-.02-.06-.01-.05-.03-.1-.04-.15-.01-.04-.03-.07-.04-.1-.01-.03-.03-.06-.04-.09-.03-.06-.07-.11-.11-.16-.02-.03-.04-.06-.07-.09-.01-.01-.02-.03-.03-.04,0,0,0,0,0,0-.08-.08-.17-.14-.26-.2,0,0,0,0,0,0,0,0-.02,0-.03-.01-.03-.02-.07-.03-.1-.04-.08-.03-.16-.06-.25-.08-.02,0-.03-.01-.05-.02l-75.21-11.62c-.37-.06-.75.05-1.03.29-.28.24-.45.6-.45.97v40.66l-37.95-5.58v-41.19c0-.06-.02-.11-.02-.17,0-.04,0-.07,0-.11,0-.01,0-.02-.01-.03,0-.03-.02-.07-.03-.1-.01-.04-.03-.08-.05-.11,0-.01,0-.02-.01-.03-.01-.03-.02-.06-.04-.09-.03-.04-.06-.08-.09-.12-.03-.03-.05-.07-.08-.1-.02-.02-.03-.04-.05-.06-.01-.01-.03-.02-.05-.04-.05-.04-.1-.07-.15-.11-.02-.01-.04-.03-.07-.05,0,0-.01,0-.02-.01,0,0-.01,0-.02,0-.04-.02-.08-.03-.11-.04-.08-.03-.15-.06-.23-.07-.01,0-.02,0-.03-.01,0,0,0,0,0,0l-50.85-8.08-30.55-4.85,2.16-81.25,22.62,3.76s0,0,0,0l12.68,2.1,4.5.75h0c.07.01.14.02.21.02,0,0,.02,0,.02,0,.13,0,.26-.03.38-.07.03,0,.05-.02.08-.03.12-.05.24-.11.35-.2.14-.12.26-.27.33-.44.07-.15.1-.31.11-.48,0-.02,0-.04,0-.06h0v-38.09l20.49,3.61s0,0,0,0l17.77,3.13c.07.01.15.02.22.02,0,0,.01,0,.02,0,.13,0,.26-.03.38-.07.03,0,.05-.02.08-.03.12-.05.24-.11.35-.2.29-.24.46-.6.46-.98v-36.71l17.83,3.54s0,0,0,0l18.17,3.6c.08.02.17.02.25.02,0,0,0,0,.01,0,.13,0,.25-.03.38-.07.03,0,.05-.02.08-.03.12-.05.24-.11.34-.19,0,0,0,0,0,0,.3-.24.47-.61.47-.99h0V2.87l69.39,15.23.87,35.63ZM125.2,18.32l15.61-14.16v32.48l-15.61-3.1v-15.23Zm-37.13,29.33l15.21-13.98v33.83l-15.21-2.68v-17.18Zm-38.78,30.68l14.23-13.34v35.15l-14.6-2.42.37-19.38ZM8.58,110.34l13.61-12.54-1.92,71.89-.22,8.33-3.04,2.48-10.57,8.63,2.14-78.8Zm13.1,69.66l60.76,9.65,17.96,2.85-15.35,10.34-76.93-11.77,13.56-11.07Zm24.58,60.69l14.95-10.04-.41,40.07-15.01-1.81.47-28.22Zm-28.66,28.69l-.46,23.81-.37,18.95-9.9,5.59-4.25,2.4,1.11-41.53,13.87-9.22Zm25.79,56.06l-37.98-3.94,9.65-5.44,3.25-1.84,28.19,2.85,10.62,1.07-13.72,7.29Zm19.9-49.21l.04-2.61,36.44,4.68-15.17,8.38-21.41-2.55.11-7.91Zm61.17,57.92l-35.01-3.85,14.58-6.78,6.84.73,28.84,3.08-15.26,6.82Zm114.07,11.97l-31.57-3.45,16.17-6.05,31.93,3.24-16.53,6.26Zm70.92,7.5l-29.32-3.26,12.96-4.42,4.18-1.43,29.96,3.21-17.78,5.9Z" fill="#FFFFFF" stroke="white" stroke-width="3"/></svg>