<svg width="323" height="290" viewBox="0 0 323 290" fill="none" xmlns="http://www.w3.org/2000/svg">
<path d="M74.7734 13.2515V48.5695L106.633 48.0186V13.2515H74.7734Z" fill="#FFFFFF"/>
<path d="M271.383 13.2515H245.008V45.5829L271.383 45.1189V13.2515Z" fill="#FFFFFF"/>
<path d="M162.633 284.023V250.242L106.633 255.143V289.91L162.633 284.023Z" fill="#FFFFFF"/>
<path d="M190.11 281.153L245.008 275.382V243.051L190.11 247.835V281.153Z" fill="#FFFFFF"/>
<path d="M296.597 143.766V111.26L271.528 112.246V79.161L245.153 79.5959V45.5537L218.807 46.0177V80.0598L135.329 81.5387V47.4965L106.748 47.9894V82.0316L74.8312 82.5826V119.003L44.0746 120.075V157.046L13.2891 158.641V263.29L44.0456 260.594V190.712L74.8021 188.566V257.926L106.719 255.026V221.158L245.124 210.516V243.022L271.499 240.731V174.821L296.772 173.052V238.527L323.118 236.207V142.432L296.597 143.766ZM135.155 152.262L106.574 153.741V118.046L135.155 117.031V152.262ZM244.979 146.462L218.633 147.854V113.986L244.979 113.058V146.462Z" fill="#FFFFFF"/>
<path d="M13.2601 263.32L0 250.068V145.419L13.2601 158.67V263.32Z" fill="#151314"/>
<path d="M13.2601 158.67L44.0167 157.046L30.7565 143.795L0 145.419L13.2601 158.67Z" fill="#705F5F"/>
<path d="M30.7568 106.853V143.795L44.017 157.046V120.076L30.7568 106.853Z" fill="#151314"/>
<path d="M30.7568 106.853L44.017 120.076L74.7735 119.003L61.5134 105.78L30.7568 106.853Z" fill="#705F5F"/>
<path d="M74.7728 119.003V82.5829L61.5127 69.3604V105.78L74.7728 119.003Z" fill="#151314"/>
<path d="M106.632 82.0319L93.3718 68.8093L61.5127 69.3603L74.7728 82.5828L106.632 82.0319Z" fill="#705F5F"/>
<path d="M93.3721 48.2508L106.632 48.0188V82.032L93.3721 68.8095V48.2508Z" fill="#151314"/>
<path d="M74.7728 13.2515L61.5127 0V35.3181L74.7728 48.5696V13.2515Z" fill="#151314"/>
<path d="M61.5127 0L74.7728 13.2515H106.632L93.3718 0H61.5127Z" fill="#705F5F"/>
<path d="M106.633 48.0186L135.184 47.5257L121.924 34.2742L106.633 34.5351V48.0186Z" fill="#705F5F"/>
<path d="M218.661 80.0892L205.401 66.8376L135.184 68.0845V81.539L218.661 80.0892Z" fill="#705F5F"/>
<path d="M218.661 80.089V46.0467L205.401 32.8242V66.8374L218.661 80.089Z" fill="#151314"/>
<path d="M245.008 45.5829L231.777 32.3604L205.401 32.8243L218.662 46.0468L245.008 45.5829Z" fill="#705F5F"/>
<path d="M245.007 13.2515L231.776 0V32.3604L245.007 45.5829V13.2515Z" fill="#151314"/>
<path d="M245.007 13.2515H271.383L258.123 0H231.776L245.007 13.2515Z" fill="#705F5F"/>
<path d="M245.008 66.1416L258.123 65.9097L271.383 79.1612L245.008 79.6251V66.1416Z" fill="#705F5F"/>
<path d="M271.383 98.444L283.395 98.0381L296.655 111.261L271.383 112.16V98.444Z" fill="#705F5F"/>
<path d="M231.776 113.522L245.007 113.058V146.521L231.776 133.269V113.522Z" fill="#151314"/>
<path d="M218.662 133.965L231.777 133.269L245.008 146.521L218.662 147.912V133.965Z" fill="#705F5F"/>
<path d="M121.924 117.379L135.184 116.915V152.262L121.924 139.039V117.379Z" fill="#151314"/>
<path d="M106.633 139.822L121.924 139.039L135.184 152.262L106.633 153.77V139.822Z" fill="#705F5F"/>
<path d="M296.598 143.766L323.002 142.432L309.771 129.181L296.656 129.848L296.598 143.766Z" fill="#705F5F"/>
<path d="M296.656 238.527L283.396 225.276V173.981L296.656 173.053V238.527Z" fill="#151314"/>
<path d="M245.007 243.051L231.776 229.799V211.531L245.007 210.517V243.051Z" fill="#151314"/>
<path d="M245.007 243.051L231.776 229.799L176.85 234.613L190.11 247.835L245.007 243.051Z" fill="#705F5F"/>
<path d="M176.85 234.613L190.11 247.835V281.153L176.85 267.901V234.613Z" fill="#151314"/>
<path d="M106.633 240.731L149.402 236.99L162.633 250.242L106.633 255.142V240.731Z" fill="#705F5F"/>
<path d="M93.3721 256.302L106.632 255.143V289.91L93.3721 276.687V256.302Z" fill="#151314"/>
<path d="M74.7728 188.566L61.5127 189.494V244.675L74.7728 257.926V188.566Z" fill="#151314"/>
</svg>
