<svg width="835" height="285" viewBox="0 0 835 285" fill="none" xmlns="http://www.w3.org/2000/svg">
<path d="M805 245L813 253V285L805 277V245Z" fill="#151314"/>
<path d="M805 245L837 245L845 253H813L805 245Z" fill="#705F5F"/>
<rect x="813" y="253" width="32" height="32" fill="#06AED5"/>
<path d="M770 245L778 253V285L770 277V245Z" fill="#151314"/>
<path d="M770 245L802 245L810 253H778L770 245Z" fill="#705F5F"/>
<rect x="778" y="253" width="32" height="32" fill="#06AED5"/>
<path d="M805 210L813 218V250L805 242V210Z" fill="#151314"/>
<path d="M805 210L837 210L845 218H813L805 210Z" fill="#705F5F"/>
<rect x="813" y="218" width="32" height="32" fill="#06AED5"/>
<path d="M735 245L743 253V285L735 277V245Z" fill="#151314"/>
<path d="M735 245L767 245L775 253H743L735 245Z" fill="#705F5F"/>
<rect x="743" y="253" width="32" height="32" fill="#06AED5"/>
<path d="M770 210L778 218V250L770 242V210Z" fill="#151314"/>
<path d="M770 210L802 210L810 218H778L770 210Z" fill="#705F5F"/>
<rect x="778" y="218" width="32" height="32" fill="#06AED5"/>
<path d="M700 245L708 253V285L700 277V245Z" fill="#151314"/>
<path d="M700 245L732 245L740 253H708L700 245Z" fill="#705F5F"/>
<rect x="708" y="253" width="32" height="32" fill="#06AED5"/>
<path d="M735 210L743 218V250L735 242V210Z" fill="#151314"/>
<path d="M735 210L767 210L775 218H743L735 210Z" fill="#705F5F"/>
<rect x="743" y="218" width="32" height="32" fill="#06AED5"/>
<path d="M665 245L673 253V285L665 277V245Z" fill="#151314"/>
<path d="M665 245L697 245L705 253H673L665 245Z" fill="#705F5F"/>
<rect x="673" y="253" width="32" height="32" fill="#06AED5"/>
<path d="M805 175L813 183V215L805 207V175Z" fill="#151314"/>
<path d="M805 175L837 175L845 183H813L805 175Z" fill="#705F5F"/>
<rect x="813" y="183" width="32" height="32" fill="#06AED5"/>
<path d="M700 210L708 218V250L700 242V210Z" fill="#151314"/>
<path d="M700 210L732 210L740 218H708L700 210Z" fill="#705F5F"/>
<rect x="708" y="218" width="32" height="32" fill="#06AED5"/>
<path d="M630 245L638 253V285L630 277V245Z" fill="#151314"/>
<path d="M630 245L662 245L670 253H638L630 245Z" fill="#705F5F"/>
<rect x="638" y="253" width="32" height="32" fill="#06AED5"/>
<path d="M770 175L778 183V215L770 207V175Z" fill="#151314"/>
<path d="M770 175L802 175L810 183H778L770 175Z" fill="#705F5F"/>
<rect x="778" y="183" width="32" height="32" fill="#06AED5"/>
<path d="M665 210L673 218V250L665 242V210Z" fill="#151314"/>
<path d="M665 210L697 210L705 218H673L665 210Z" fill="#705F5F"/>
<rect x="673" y="218" width="32" height="32" fill="#06AED5"/>
<path d="M805 140L813 148V180L805 172V140Z" fill="#151314"/>
<path d="M805 140L837 140L845 148H813L805 140Z" fill="#705F5F"/>
<rect x="813" y="148" width="32" height="32" fill="#06AED5"/>
<path d="M595 245L603 253V285L595 277V245Z" fill="#151314"/>
<path d="M595 245L627 245L635 253H603L595 245Z" fill="#705F5F"/>
<rect x="603" y="253" width="32" height="32" fill="#06AED5"/>
<path d="M735 175L743 183V215L735 207V175Z" fill="#151314"/>
<path d="M735 175L767 175L775 183H743L735 175Z" fill="#705F5F"/>
<rect x="743" y="183" width="32" height="32" fill="#06AED5"/>
<path d="M630 210L638 218V250L630 242V210Z" fill="#151314"/>
<path d="M630 210L662 210L670 218H638L630 210Z" fill="#705F5F"/>
<rect x="638" y="218" width="32" height="32" fill="#06AED5"/>
<path d="M770 140L778 148V180L770 172V140Z" fill="#151314"/>
<path d="M770 140L802 140L810 148H778L770 140Z" fill="#705F5F"/>
<rect x="778" y="148" width="32" height="32" fill="#06AED5"/>
<path d="M560 245L568 253V285L560 277V245Z" fill="#151314"/>
<path d="M560 245L592 245L600 253H568L560 245Z" fill="#705F5F"/>
<rect x="568" y="253" width="32" height="32" fill="#06AED5"/>
<path d="M595 210L603 218V250L595 242V210Z" fill="#151314"/>
<path d="M595 210L627 210L635 218H603L595 210Z" fill="#705F5F"/>
<rect x="603" y="218" width="32" height="32" fill="#06AED5"/>
<path d="M735 140L743 148V180L735 172V140Z" fill="#151314"/>
<path d="M735 140L767 140L775 148H743L735 140Z" fill="#705F5F"/>
<rect x="743" y="148" width="32" height="32" fill="#06AED5"/>
<path d="M525 245L533 253V285L525 277V245Z" fill="#151314"/>
<path d="M525 245L557 245L565 253H533L525 245Z" fill="#705F5F"/>
<rect x="533" y="253" width="32" height="32" fill="#06AED5"/>
<path d="M805 105L813 113V145L805 137V105Z" fill="#151314"/>
<path d="M805 105L837 105L845 113H813L805 105Z" fill="#705F5F"/>
<rect x="813" y="113" width="32" height="32" fill="#06AED5"/>
<path d="M665 175L673 183V215L665 207V175Z" fill="#151314"/>
<path d="M665 175L697 175L705 183H673L665 175Z" fill="#705F5F"/>
<rect x="673" y="183" width="32" height="32" fill="#06AED5"/>
<path d="M560 210L568 218V250L560 242V210Z" fill="#151314"/>
<path d="M560 210L592 210L600 218H568L560 210Z" fill="#705F5F"/>
<rect x="568" y="218" width="32" height="32" fill="#06AED5"/>
<path d="M700 140L708 148V180L700 172V140Z" fill="#151314"/>
<path d="M700 140L732 140L740 148H708L700 140Z" fill="#705F5F"/>
<rect x="708" y="148" width="32" height="32" fill="#06AED5"/>
<path d="M490 245L498 253V285L490 277V245Z" fill="#151314"/>
<path d="M490 245L522 245L530 253H498L490 245Z" fill="#705F5F"/>
<rect x="498" y="253" width="32" height="32" fill="#06AED5"/>
<path d="M630 175L638 183V215L630 207V175Z" fill="#151314"/>
<path d="M630 175L662 175L670 183H638L630 175Z" fill="#705F5F"/>
<rect x="638" y="183" width="32" height="32" fill="#06AED5"/>
<path d="M525 210L533 218V250L525 242V210Z" fill="#151314"/>
<path d="M525 210L557 210L565 218H533L525 210Z" fill="#705F5F"/>
<rect x="533" y="218" width="32" height="32" fill="#06AED5"/>
<path d="M805 70L813 78V110L805 102V70Z" fill="#151314"/>
<path d="M805 70L837 70L845 78H813L805 70Z" fill="#705F5F"/>
<rect x="813" y="78" width="32" height="32" fill="#06AED5"/>
<path d="M455 245L463 253V285L455 277V245Z" fill="#151314"/>
<path d="M455 245L487 245L495 253H463L455 245Z" fill="#705F5F"/>
<rect x="463" y="253" width="32" height="32" fill="#06AED5"/>
<path d="M735 105L743 113V145L735 137V105Z" fill="#151314"/>
<path d="M735 105L767 105L775 113H743L735 105Z" fill="#705F5F"/>
<rect x="743" y="113" width="32" height="32" fill="#06AED5"/>
<path d="M490 210L498 218V250L490 242V210Z" fill="#151314"/>
<path d="M490 210L522 210L530 218H498L490 210Z" fill="#705F5F"/>
<rect x="498" y="218" width="32" height="32" fill="#06AED5"/>
<path d="M770 70L778 78V110L770 102V70Z" fill="#151314"/>
<path d="M770 70L802 70L810 78H778L770 70Z" fill="#705F5F"/>
<rect x="778" y="78" width="32" height="32" fill="#06AED5"/>
<path d="M630 140L638 148V180L630 172V140Z" fill="#151314"/>
<path d="M630 140L662 140L670 148H638L630 140Z" fill="#705F5F"/>
<rect x="638" y="148" width="32" height="32" fill="#06AED5"/>
<path d="M420 245L428 253V285L420 277V245Z" fill="#151314"/>
<path d="M420 245L452 245L460 253H428L420 245Z" fill="#705F5F"/>
<rect x="428" y="253" width="32" height="32" fill="#06AED5"/>
<path d="M560 175L568 183V215L560 207V175Z" fill="#151314"/>
<path d="M560 175L592 175L600 183H568L560 175Z" fill="#705F5F"/>
<rect x="568" y="183" width="32" height="32" fill="#06AED5"/>
<path d="M455 210L463 218V250L455 242V210Z" fill="#151314"/>
<path d="M455 210L487 210L495 218H463L455 210Z" fill="#705F5F"/>
<rect x="463" y="218" width="32" height="32" fill="#06AED5"/>
<path d="M735 70L743 78V110L735 102V70Z" fill="#151314"/>
<path d="M735 70L767 70L775 78H743L735 70Z" fill="#705F5F"/>
<rect x="743" y="78" width="32" height="32" fill="#06AED5"/>
<path d="M595 140L603 148V180L595 172V140Z" fill="#151314"/>
<path d="M595 140L627 140L635 148H603L595 140Z" fill="#705F5F"/>
<rect x="603" y="148" width="32" height="32" fill="#06AED5"/>
<path d="M385 245L393 253V285L385 277V245Z" fill="#151314"/>
<path d="M385 245L417 245L425 253H393L385 245Z" fill="#705F5F"/>
<rect x="393" y="253" width="32" height="32" fill="#06AED5"/>
<path d="M665 105L673 113V145L665 137V105Z" fill="#151314"/>
<path d="M665 105L697 105L705 113H673L665 105Z" fill="#705F5F"/>
<rect x="673" y="113" width="32" height="32" fill="#06AED5"/>
<path d="M420 210L428 218V250L420 242V210Z" fill="#151314"/>
<path d="M420 210L452 210L460 218H428L420 210Z" fill="#705F5F"/>
<rect x="428" y="218" width="32" height="32" fill="#06AED5"/>
<path d="M700 70L708 78V110L700 102V70Z" fill="#151314"/>
<path d="M700 70L732 70L740 78H708L700 70Z" fill="#705F5F"/>
<rect x="708" y="78" width="32" height="32" fill="#06AED5"/>
<path d="M350 245L358 253V285L350 277V245Z" fill="#151314"/>
<path d="M350 245L382 245L390 253H358L350 245Z" fill="#705F5F"/>
<rect x="358" y="253" width="32" height="32" fill="#06AED5"/>
<path d="M770 35L778 43V75L770 67V35Z" fill="#151314"/>
<path d="M770 35L802 35L810 43H778L770 35Z" fill="#705F5F"/>
<rect x="778" y="43" width="32" height="32" fill="#06AED5"/>
<path d="M385 210L393 218V250L385 242V210Z" fill="#151314"/>
<path d="M385 210L417 210L425 218H393L385 210Z" fill="#705F5F"/>
<rect x="393" y="218" width="32" height="32" fill="#06AED5"/>
<path d="M665 70L673 78V110L665 102V70Z" fill="#151314"/>
<path d="M665 70L697 70L705 78H673L665 70Z" fill="#705F5F"/>
<rect x="673" y="78" width="32" height="32" fill="#06AED5"/>
<path d="M805 0L813 8V40L805 32V0Z" fill="#151314"/>
<path d="M805 0L837 0L845 8H813L805 0Z" fill="#705F5F"/>
<rect x="813" y="8" width="32" height="32" fill="#06AED5"/>
<path d="M315 245L323 253V285L315 277V245Z" fill="#151314"/>
<path d="M315 245L347 245L355 253H323L315 245Z" fill="#705F5F"/>
<rect x="323" y="253" width="32" height="32" fill="#06AED5"/>
<path d="M595 105L603 113V145L595 137V105Z" fill="#151314"/>
<path d="M595 105L627 105L635 113H603L595 105Z" fill="#705F5F"/>
<rect x="603" y="113" width="32" height="32" fill="#06AED5"/>
<path d="M455 175L463 183V215L455 207V175Z" fill="#151314"/>
<path d="M455 175L487 175L495 183H463L455 175Z" fill="#705F5F"/>
<rect x="463" y="183" width="32" height="32" fill="#06AED5"/>
<path d="M735 35L743 43V75L735 67V35Z" fill="#151314"/>
<path d="M735 35L767 35L775 43H743L735 35Z" fill="#705F5F"/>
<rect x="743" y="43" width="32" height="32" fill="#06AED5"/>
<path d="M350 210L358 218V250L350 242V210Z" fill="#151314"/>
<path d="M350 210L382 210L390 218H358L350 210Z" fill="#705F5F"/>
<rect x="358" y="218" width="32" height="32" fill="#06AED5"/>
<path d="M490 140L498 148V180L490 172V140Z" fill="#151314"/>
<path d="M490 140L522 140L530 148H498L490 140Z" fill="#705F5F"/>
<rect x="498" y="148" width="32" height="32" fill="#06AED5"/>
<path d="M280 245L288 253V285L280 277V245Z" fill="#151314"/>
<path d="M280 245L312 245L320 253H288L280 245Z" fill="#705F5F"/>
<rect x="288" y="253" width="32" height="32" fill="#06AED5"/>
<path d="M420 175L428 183V215L420 207V175Z" fill="#151314"/>
<path d="M420 175L452 175L460 183H428L420 175Z" fill="#705F5F"/>
<rect x="428" y="183" width="32" height="32" fill="#06AED5"/>
<path d="M700 35L708 43V75L700 67V35Z" fill="#151314"/>
<path d="M700 35L732 35L740 43H708L700 35Z" fill="#705F5F"/>
<rect x="708" y="43" width="32" height="32" fill="#06AED5"/>
<path d="M315 210L323 218V250L315 242V210Z" fill="#151314"/>
<path d="M315 210L347 210L355 218H323L315 210Z" fill="#705F5F"/>
<rect x="323" y="218" width="32" height="32" fill="#06AED5"/>
<path d="M735 0L743 8V40L735 32V0Z" fill="#151314"/>
<path d="M735 0L767 0L775 8H743L735 0Z" fill="#705F5F"/>
<rect x="743" y="8" width="32" height="32" fill="#06AED5"/>
<path d="M245 245L253 253V285L245 277V245Z" fill="#151314"/>
<path d="M245 245L277 245L285 253H253L245 245Z" fill="#705F5F"/>
<rect x="253" y="253" width="32" height="32" fill="#06AED5"/>
<path d="M385 175L393 183V215L385 207V175Z" fill="#151314"/>
<path d="M385 175L417 175L425 183H393L385 175Z" fill="#705F5F"/>
<rect x="393" y="183" width="32" height="32" fill="#06AED5"/>
<path d="M280 210L288 218V250L280 242V210Z" fill="#151314"/>
<path d="M280 210L312 210L320 218H288L280 210Z" fill="#705F5F"/>
<rect x="288" y="218" width="32" height="32" fill="#06AED5"/>
<path d="M420 140L428 148V180L420 172V140Z" fill="#151314"/>
<path d="M420 140L452 140L460 148H428L420 140Z" fill="#705F5F"/>
<rect x="428" y="148" width="32" height="32" fill="#06AED5"/>
<path d="M210 245L218 253V285L210 277V245Z" fill="#151314"/>
<path d="M210 245L242 245L250 253H218L210 245Z" fill="#705F5F"/>
<rect x="218" y="253" width="32" height="32" fill="#06AED5"/>
<path d="M350 175L358 183V215L350 207V175Z" fill="#151314"/>
<path d="M350 175L382 175L390 183H358L350 175Z" fill="#705F5F"/>
<rect x="358" y="183" width="32" height="32" fill="#06AED5"/>
<path d="M245 210L253 218V250L245 242V210Z" fill="#151314"/>
<path d="M245 210L277 210L285 218H253L245 210Z" fill="#705F5F"/>
<rect x="253" y="218" width="32" height="32" fill="#06AED5"/>
<path d="M385 140L393 148V180L385 172V140Z" fill="#151314"/>
<path d="M385 140L417 140L425 148H393L385 140Z" fill="#705F5F"/>
<rect x="393" y="148" width="32" height="32" fill="#06AED5"/>
<path d="M175 245L183 253V285L175 277V245Z" fill="#151314"/>
<path d="M175 245L207 245L215 253H183L175 245Z" fill="#705F5F"/>
<rect x="183" y="253" width="32" height="32" fill="#06AED5"/>
<path d="M315 175L323 183V215L315 207V175Z" fill="#151314"/>
<path d="M315 175L347 175L355 183H323L315 175Z" fill="#705F5F"/>
<rect x="323" y="183" width="32" height="32" fill="#06AED5"/>
<path d="M595 35L603 43V75L595 67V35Z" fill="#151314"/>
<path d="M595 35L627 35L635 43H603L595 35Z" fill="#705F5F"/>
<rect x="603" y="43" width="32" height="32" fill="#06AED5"/>
<path d="M140 245L148 253V285L140 277V245Z" fill="#151314"/>
<path d="M140 245L172 245L180 253H148L140 245Z" fill="#705F5F"/>
<rect x="148" y="253" width="32" height="32" fill="#06AED5"/>
<path d="M420 105L428 113V145L420 137V105Z" fill="#151314"/>
<path d="M420 105L452 105L460 113H428L420 105Z" fill="#705F5F"/>
<rect x="428" y="113" width="32" height="32" fill="#06AED5"/>
<path d="M280 175L288 183V215L280 207V175Z" fill="#151314"/>
<path d="M280 175L312 175L320 183H288L280 175Z" fill="#705F5F"/>
<rect x="288" y="183" width="32" height="32" fill="#06AED5"/>
<path d="M315 140L323 148V180L315 172V140Z" fill="#151314"/>
<path d="M315 140L347 140L355 148H323L315 140Z" fill="#705F5F"/>
<rect x="323" y="148" width="32" height="32" fill="#06AED5"/>
<path d="M525 35L533 43V75L525 67V35Z" fill="#151314"/>
<path d="M525 35L557 35L565 43H533L525 35Z" fill="#705F5F"/>
<rect x="533" y="43" width="32" height="32" fill="#06AED5"/>
<path d="M280 140L288 148V180L280 172V140Z" fill="#151314"/>
<path d="M280 140L312 140L320 148H288L280 140Z" fill="#705F5F"/>
<rect x="288" y="148" width="32" height="32" fill="#06AED5"/>
<path d="M560 0L568 8V40L560 32V0Z" fill="#151314"/>
<path d="M560 0L592 0L600 8H568L560 0Z" fill="#705F5F"/>
<rect x="568" y="8" width="32" height="32" fill="#06AED5"/>
<path d="M70 245L78 253V285L70 277V245Z" fill="#151314"/>
<path d="M70 245L102 245L110 253H78L70 245Z" fill="#705F5F"/>
<rect x="78" y="253" width="32" height="32" fill="#06AED5"/>
<path d="M350 105L358 113V145L350 137V105Z" fill="#151314"/>
<path d="M350 105L382 105L390 113H358L350 105Z" fill="#705F5F"/>
<rect x="358" y="113" width="32" height="32" fill="#06AED5"/>
<path d="M210 175L218 183V215L210 207V175Z" fill="#151314"/>
<path d="M210 175L242 175L250 183H218L210 175Z" fill="#705F5F"/>
<rect x="218" y="183" width="32" height="32" fill="#06AED5"/>
<path d="M105 210L113 218V250L105 242V210Z" fill="#151314"/>
<path d="M105 210L137 210L145 218H113L105 210Z" fill="#705F5F"/>
<rect x="113" y="218" width="32" height="32" fill="#06AED5"/>
<path d="M385 70L393 78V110L385 102V70Z" fill="#151314"/>
<path d="M385 70L417 70L425 78H393L385 70Z" fill="#705F5F"/>
<rect x="393" y="78" width="32" height="32" fill="#06AED5"/>
<path d="M245 140L253 148V180L245 172V140Z" fill="#151314"/>
<path d="M245 140L277 140L285 148H253L245 140Z" fill="#705F5F"/>
<rect x="253" y="148" width="32" height="32" fill="#06AED5"/>
<path d="M175 175L183 183V215L175 207V175Z" fill="#151314"/>
<path d="M175 175L207 175L215 183H183L175 175Z" fill="#705F5F"/>
<rect x="183" y="183" width="32" height="32" fill="#06AED5"/>
<path d="M0 245L8 253V285L0 277V245Z" fill="#151314"/>
<path d="M0 245L32 245L40 253H8L0 245Z" fill="#705F5F"/>
<rect x="8" y="253" width="32" height="32" fill="#06AED5"/>
<path d="M140 140L148 148V180L140 172V140Z" fill="#151314"/>
<path d="M140 140L172 140L180 148H148L140 140Z" fill="#705F5F"/>
<rect x="148" y="148" width="32" height="32" fill="#06AED5"/>
<path d="M280 70L288 78V110L280 102V70Z" fill="#151314"/>
<path d="M280 70L312 70L320 78H288L280 70Z" fill="#705F5F"/>
<rect x="288" y="78" width="32" height="32" fill="#06AED5"/>
<path d="M35 175L43 183V215L35 207V175Z" fill="#151314"/>
<path d="M35 175L67 175L75 183H43L35 175Z" fill="#705F5F"/>
<rect x="43" y="183" width="32" height="32" fill="#06AED5"/>
<path d="M0 140L8 148V180L0 172V140Z" fill="#151314"/>
<path d="M0 140L32 140L40 148H8L0 140Z" fill="#705F5F"/>
<rect x="8" y="148" width="32" height="32" fill="#06AED5"/>
<path d="M210 0L218 8V40L210 32V0Z" fill="#151314"/>
<path d="M210 0L242 0L250 8H218L210 0Z" fill="#705F5F"/>
<rect x="218" y="8" width="32" height="32" fill="#06AED5"/>
</svg>
