<svg viewBox="0 0 100 100" fill="none" xmlns="http://www.w3.org/2000/svg">
<path d="M37.9312 0H34.4829V3.44828H37.9312V0Z" fill="white"/>
<path d="M44.8277 0H41.3794V3.44828H44.8277V0Z" fill="white"/>
<path d="M51.7242 0H48.2759V3.44828H51.7242V0Z" fill="white"/>
<path d="M65.5171 0H62.0688V3.44828H65.5171V0Z" fill="white"/>
<path d="M72.4136 0H68.9653V3.44828H72.4136V0Z" fill="white"/>
<path d="M31.0342 3.44824H27.5859V6.89652H31.0342V3.44824Z" fill="white"/>
<path d="M34.4825 3.44824H31.0342V6.89652H34.4825V3.44824Z" fill="white"/>
<path d="M37.9312 3.44824H34.4829V6.89652H37.9312V3.44824Z" fill="white"/>
<path d="M41.3794 3.44824H37.9312V6.89652H41.3794V3.44824Z" fill="white"/>
<path d="M48.2759 3.44824H44.8276V6.89652H48.2759V3.44824Z" fill="white"/>
<path d="M55.1724 3.44824H51.7241V6.89652H55.1724V3.44824Z" fill="white"/>
<path d="M62.0689 3.44824H58.6206V6.89652H62.0689V3.44824Z" fill="white"/>
<path d="M68.9654 3.44824H65.5171V6.89652H68.9654V3.44824Z" fill="white"/>
<path d="M72.4136 3.44824H68.9653V6.89652H72.4136V3.44824Z" fill="white"/>
<path d="M31.0342 6.89648H27.5859V10.3448H31.0342V6.89648Z" fill="white"/>
<path d="M37.9312 6.89648H34.4829V10.3448H37.9312V6.89648Z" fill="white"/>
<path d="M55.1724 6.89648H51.7241V10.3448H55.1724V6.89648Z" fill="white"/>
<path d="M65.5171 6.89648H62.0688V10.3448H65.5171V6.89648Z" fill="white"/>
<path d="M72.4136 6.89648H68.9653V10.3448H72.4136V6.89648Z" fill="white"/>
<path d="M44.8277 10.345H41.3794V13.7932H44.8277V10.345Z" fill="white"/>
<path d="M51.7242 10.345H48.2759V13.7932H51.7242V10.345Z" fill="white"/>
<path d="M58.6206 10.345H55.1724V13.7932H58.6206V10.345Z" fill="white"/>
<path d="M62.0689 10.345H58.6206V13.7932H62.0689V10.345Z" fill="white"/>
<path d="M68.9654 10.345H65.5171V13.7932H68.9654V10.345Z" fill="white"/>
<path d="M34.4825 13.7932H31.0342V17.2415H34.4825V13.7932Z" fill="white"/>
<path d="M37.9312 13.7932H34.4829V17.2415H37.9312V13.7932Z" fill="white"/>
<path d="M41.3794 13.7932H37.9312V17.2415H41.3794V13.7932Z" fill="white"/>
<path d="M44.8277 13.7932H41.3794V17.2415H44.8277V13.7932Z" fill="white"/>
<path d="M48.2759 13.7932H44.8276V17.2415H48.2759V13.7932Z" fill="white"/>
<path d="M51.7242 13.7932H48.2759V17.2415H51.7242V13.7932Z" fill="white"/>
<path d="M58.6206 13.7932H55.1724V17.2415H58.6206V13.7932Z" fill="white"/>
<path d="M62.0689 13.7932H58.6206V17.2415H62.0689V13.7932Z" fill="white"/>
<path d="M68.9654 13.7932H65.5171V17.2415H68.9654V13.7932Z" fill="white"/>
<path d="M34.4825 17.2415H31.0342V20.6897H34.4825V17.2415Z" fill="white"/>
<path d="M37.9312 17.2415H34.4829V20.6897H37.9312V17.2415Z" fill="white"/>
<path d="M48.2759 17.2415H44.8276V20.6897H48.2759V17.2415Z" fill="white"/>
<path d="M51.7242 17.2415H48.2759V20.6897H51.7242V17.2415Z" fill="white"/>
<path d="M68.9654 17.2415H65.5171V20.6897H68.9654V17.2415Z" fill="white"/>
<path d="M72.4136 17.2415H68.9653V20.6897H72.4136V17.2415Z" fill="white"/>
<path d="M31.0342 20.6897H27.5859V24.138H31.0342V20.6897Z" fill="white"/>
<path d="M37.9312 20.6897H34.4829V24.138H37.9312V20.6897Z" fill="white"/>
<path d="M44.8277 20.6897H41.3794V24.138H44.8277V20.6897Z" fill="white"/>
<path d="M51.7242 20.6897H48.2759V24.138H51.7242V20.6897Z" fill="white"/>
<path d="M58.6206 20.6897H55.1724V24.138H58.6206V20.6897Z" fill="white"/>
<path d="M65.5171 20.6897H62.0688V24.138H65.5171V20.6897Z" fill="white"/>
<path d="M72.4136 20.6897H68.9653V24.138H72.4136V20.6897Z" fill="white"/>
<path d="M34.4825 24.1379H31.0342V27.5862H34.4825V24.1379Z" fill="white"/>
<path d="M37.9312 24.1379H34.4829V27.5862H37.9312V24.1379Z" fill="white"/>
<path d="M41.3794 24.1379H37.9312V27.5862H41.3794V24.1379Z" fill="white"/>
<path d="M48.2759 24.1379H44.8276V27.5862H48.2759V24.1379Z" fill="white"/>
<path d="M51.7242 24.1379H48.2759V27.5862H51.7242V24.1379Z" fill="white"/>
<path d="M62.0689 24.1379H58.6206V27.5862H62.0689V24.1379Z" fill="white"/>
<path d="M65.5171 24.1379H62.0688V27.5862H65.5171V24.1379Z" fill="white"/>
<path d="M68.9654 24.1379H65.5171V27.5862H68.9654V24.1379Z" fill="white"/>
<path d="M72.4136 24.1379H68.9653V27.5862H72.4136V24.1379Z" fill="white"/>
<path d="M6.89652 27.5862H3.44824V31.0345H6.89652V27.5862Z" fill="white"/>
<path d="M10.3448 27.5862H6.89648V31.0345H10.3448V27.5862Z" fill="white"/>
<path d="M13.793 27.5862H10.3447V31.0345H13.793V27.5862Z" fill="white"/>
<path d="M20.6895 27.5862H17.2412V31.0345H20.6895V27.5862Z" fill="white"/>
<path d="M24.1377 27.5862H20.6895V31.0345H24.1377V27.5862Z" fill="white"/>
<path d="M34.4825 27.5862H31.0342V31.0345H34.4825V27.5862Z" fill="white"/>
<path d="M41.3794 27.5862H37.9312V31.0345H41.3794V27.5862Z" fill="white"/>
<path d="M44.8277 27.5862H41.3794V31.0345H44.8277V27.5862Z" fill="white"/>
<path d="M55.1724 27.5862H51.7241V31.0345H55.1724V27.5862Z" fill="white"/>
<path d="M58.6206 27.5862H55.1724V31.0345H58.6206V27.5862Z" fill="white"/>
<path d="M68.9654 27.5862H65.5171V31.0345H68.9654V27.5862Z" fill="white"/>
<path d="M93.1036 27.5862H89.6553V31.0345H93.1036V27.5862Z" fill="white"/>
<path d="M96.5518 27.5862H93.1035V31.0345H96.5518V27.5862Z" fill="white"/>
<path d="M3.44828 31.0344H0V34.4827H3.44828V31.0344Z" fill="white"/>
<path d="M6.89652 31.0344H3.44824V34.4827H6.89652V31.0344Z" fill="white"/>
<path d="M10.3448 31.0344H6.89648V34.4827H10.3448V31.0344Z" fill="white"/>
<path d="M13.793 31.0344H10.3447V34.4827H13.793V31.0344Z" fill="white"/>
<path d="M27.586 31.0344H24.1377V34.4827H27.586V31.0344Z" fill="white"/>
<path d="M31.0342 31.0344H27.5859V34.4827H31.0342V31.0344Z" fill="white"/>
<path d="M34.4825 31.0344H31.0342V34.4827H34.4825V31.0344Z" fill="white"/>
<path d="M44.8277 31.0344H41.3794V34.4827H44.8277V31.0344Z" fill="white"/>
<path d="M48.2759 31.0344H44.8276V34.4827H48.2759V31.0344Z" fill="white"/>
<path d="M51.7242 31.0344H48.2759V34.4827H51.7242V31.0344Z" fill="white"/>
<path d="M62.0689 31.0344H58.6206V34.4827H62.0689V31.0344Z" fill="white"/>
<path d="M75.8623 31.0344H72.4141V34.4827H75.8623V31.0344Z" fill="white"/>
<path d="M79.3106 31.0344H75.8623V34.4827H79.3106V31.0344Z" fill="white"/>
<path d="M82.7588 31.0344H79.3105V34.4827H82.7588V31.0344Z" fill="white"/>
<path d="M86.2071 31.0344H82.7588V34.4827H86.2071V31.0344Z" fill="white"/>
<path d="M89.6553 31.0344H86.207V34.4827H89.6553V31.0344Z" fill="white"/>
<path d="M93.1036 31.0344H89.6553V34.4827H93.1036V31.0344Z" fill="white"/>
<path d="M100 31.0344H96.5518V34.4827H100V31.0344Z" fill="white"/>
<path d="M3.44828 34.4827H0V37.9309H3.44828V34.4827Z" fill="white"/>
<path d="M20.6895 34.4827H17.2412V37.9309H20.6895V34.4827Z" fill="white"/>
<path d="M24.1377 34.4827H20.6895V37.9309H24.1377V34.4827Z" fill="white"/>
<path d="M27.586 34.4827H24.1377V37.9309H27.586V34.4827Z" fill="white"/>
<path d="M31.0342 34.4827H27.5859V37.9309H31.0342V34.4827Z" fill="white"/>
<path d="M41.3794 34.4827H37.9312V37.9309H41.3794V34.4827Z" fill="white"/>
<path d="M51.7242 34.4827H48.2759V37.9309H51.7242V34.4827Z" fill="white"/>
<path d="M55.1724 34.4827H51.7241V37.9309H55.1724V34.4827Z" fill="white"/>
<path d="M58.6206 34.4827H55.1724V37.9309H58.6206V34.4827Z" fill="white"/>
<path d="M65.5171 34.4827H62.0688V37.9309H65.5171V34.4827Z" fill="white"/>
<path d="M79.3106 34.4827H75.8623V37.9309H79.3106V34.4827Z" fill="white"/>
<path d="M89.6553 34.4827H86.207V37.9309H89.6553V34.4827Z" fill="white"/>
<path d="M96.5518 34.4827H93.1035V37.9309H96.5518V34.4827Z" fill="white"/>
<path d="M17.2412 37.9312H13.793V41.3794H17.2412V37.9312Z" fill="white"/>
<path d="M20.6895 37.9312H17.2412V41.3794H20.6895V37.9312Z" fill="white"/>
<path d="M27.586 37.9312H24.1377V41.3794H27.586V37.9312Z" fill="white"/>
<path d="M31.0342 37.9312H27.5859V41.3794H31.0342V37.9312Z" fill="white"/>
<path d="M34.4825 37.9312H31.0342V41.3794H34.4825V37.9312Z" fill="white"/>
<path d="M37.9312 37.9312H34.4829V41.3794H37.9312V37.9312Z" fill="white"/>
<path d="M41.3794 37.9312H37.9312V41.3794H41.3794V37.9312Z" fill="white"/>
<path d="M48.2759 37.9312H44.8276V41.3794H48.2759V37.9312Z" fill="white"/>
<path d="M89.6553 37.9312H86.207V41.3794H89.6553V37.9312Z" fill="white"/>
<path d="M100 37.9312H96.5518V41.3794H100V37.9312Z" fill="white"/>
<path d="M3.44828 41.3794H0V44.8277H3.44828V41.3794Z" fill="white"/>
<path d="M6.89652 41.3794H3.44824V44.8277H6.89652V41.3794Z" fill="white"/>
<path d="M10.3448 41.3794H6.89648V44.8277H10.3448V41.3794Z" fill="white"/>
<path d="M24.1377 41.3794H20.6895V44.8277H24.1377V41.3794Z" fill="white"/>
<path d="M31.0342 41.3794H27.5859V44.8277H31.0342V41.3794Z" fill="white"/>
<path d="M41.3794 41.3794H37.9312V44.8277H41.3794V41.3794Z" fill="white"/>
<path d="M51.7242 41.3794H48.2759V44.8277H51.7242V41.3794Z" fill="white"/>
<path d="M55.1724 41.3794H51.7241V44.8277H55.1724V41.3794Z" fill="white"/>
<path d="M58.6206 41.3794H55.1724V44.8277H58.6206V41.3794Z" fill="white"/>
<path d="M62.0689 41.3794H58.6206V44.8277H62.0689V41.3794Z" fill="white"/>
<path d="M75.8623 41.3794H72.4141V44.8277H75.8623V41.3794Z" fill="white"/>
<path d="M82.7588 41.3794H79.3105V44.8277H82.7588V41.3794Z" fill="white"/>
<path d="M89.6553 41.3794H86.207V44.8277H89.6553V41.3794Z" fill="white"/>
<path d="M93.1036 41.3794H89.6553V44.8277H93.1036V41.3794Z" fill="white"/>
<path d="M96.5518 41.3794H93.1035V44.8277H96.5518V41.3794Z" fill="white"/>
<path d="M100 41.3794H96.5518V44.8277H100V41.3794Z" fill="white"/>
<path d="M10.3448 44.8276H6.89648V48.2759H10.3448V44.8276Z" fill="white"/>
<path d="M13.793 44.8276H10.3447V48.2759H13.793V44.8276Z" fill="white"/>
<path d="M20.6895 44.8276H17.2412V48.2759H20.6895V44.8276Z" fill="white"/>
<path d="M27.586 44.8276H24.1377V48.2759H27.586V44.8276Z" fill="white"/>
<path d="M31.0342 44.8276H27.5859V48.2759H31.0342V44.8276Z" fill="white"/>
<path d="M34.4825 44.8276H31.0342V48.2759H34.4825V44.8276Z" fill="white"/>
<path d="M41.3794 44.8276H37.9312V48.2759H41.3794V44.8276Z" fill="white"/>
<path d="M48.2759 44.8276H44.8276V48.2759H48.2759V44.8276Z" fill="white"/>
<path d="M58.6206 44.8276H55.1724V48.2759H58.6206V44.8276Z" fill="white"/>
<path d="M68.9654 44.8276H65.5171V48.2759H68.9654V44.8276Z" fill="white"/>
<path d="M79.3106 44.8276H75.8623V48.2759H79.3106V44.8276Z" fill="white"/>
<path d="M82.7588 44.8276H79.3105V48.2759H82.7588V44.8276Z" fill="white"/>
<path d="M89.6553 44.8276H86.207V48.2759H89.6553V44.8276Z" fill="white"/>
<path d="M93.1036 44.8276H89.6553V48.2759H93.1036V44.8276Z" fill="white"/>
<path d="M100 44.8276H96.5518V48.2759H100V44.8276Z" fill="white"/>
<path d="M3.44828 48.2759H0V51.7242H3.44828V48.2759Z" fill="white"/>
<path d="M6.89652 48.2759H3.44824V51.7242H6.89652V48.2759Z" fill="white"/>
<path d="M24.1377 48.2759H20.6895V51.7242H24.1377V48.2759Z" fill="white"/>
<path d="M31.0342 48.2759H27.5859V51.7242H31.0342V48.2759Z" fill="white"/>
<path d="M34.4825 48.2759H31.0342V51.7242H34.4825V48.2759Z" fill="white"/>
<path d="M41.3794 48.2759H37.9312V51.7242H41.3794V48.2759Z" fill="white"/>
<path d="M51.7242 48.2759H48.2759V51.7242H51.7242V48.2759Z" fill="white"/>
<path d="M58.6206 48.2759H55.1724V51.7242H58.6206V48.2759Z" fill="white"/>
<path d="M62.0689 48.2759H58.6206V51.7242H62.0689V48.2759Z" fill="white"/>
<path d="M65.5171 48.2759H62.0688V51.7242H65.5171V48.2759Z" fill="white"/>
<path d="M68.9654 48.2759H65.5171V51.7242H68.9654V48.2759Z" fill="white"/>
<path d="M72.4136 48.2759H68.9653V51.7242H72.4136V48.2759Z" fill="white"/>
<path d="M75.8623 48.2759H72.4141V51.7242H75.8623V48.2759Z" fill="white"/>
<path d="M79.3106 48.2759H75.8623V51.7242H79.3106V48.2759Z" fill="white"/>
<path d="M82.7588 48.2759H79.3105V51.7242H82.7588V48.2759Z" fill="white"/>
<path d="M86.2071 48.2759H82.7588V51.7242H86.2071V48.2759Z" fill="white"/>
<path d="M89.6553 48.2759H86.207V51.7242H89.6553V48.2759Z" fill="white"/>
<path d="M100 48.2759H96.5518V51.7242H100V48.2759Z" fill="white"/>
<path d="M6.89652 51.7241H3.44824V55.1724H6.89652V51.7241Z" fill="white"/>
<path d="M10.3448 51.7241H6.89648V55.1724H10.3448V51.7241Z" fill="white"/>
<path d="M20.6895 51.7241H17.2412V55.1724H20.6895V51.7241Z" fill="white"/>
<path d="M31.0342 51.7241H27.5859V55.1724H31.0342V51.7241Z" fill="white"/>
<path d="M34.4825 51.7241H31.0342V55.1724H34.4825V51.7241Z" fill="white"/>
<path d="M48.2759 51.7241H44.8276V55.1724H48.2759V51.7241Z" fill="white"/>
<path d="M51.7242 51.7241H48.2759V55.1724H51.7242V51.7241Z" fill="white"/>
<path d="M55.1724 51.7241H51.7241V55.1724H55.1724V51.7241Z" fill="white"/>
<path d="M58.6206 51.7241H55.1724V55.1724H58.6206V51.7241Z" fill="white"/>
<path d="M62.0689 51.7241H58.6206V55.1724H62.0689V51.7241Z" fill="white"/>
<path d="M65.5171 51.7241H62.0688V55.1724H65.5171V51.7241Z" fill="white"/>
<path d="M68.9654 51.7241H65.5171V55.1724H68.9654V51.7241Z" fill="white"/>
<path d="M75.8623 51.7241H72.4141V55.1724H75.8623V51.7241Z" fill="white"/>
<path d="M86.2071 51.7241H82.7588V55.1724H86.2071V51.7241Z" fill="white"/>
<path d="M89.6553 51.7241H86.207V55.1724H89.6553V51.7241Z" fill="white"/>
<path d="M100 51.7241H96.5518V55.1724H100V51.7241Z" fill="white"/>
<path d="M6.89652 55.1724H3.44824V58.6206H6.89652V55.1724Z" fill="white"/>
<path d="M10.3448 55.1724H6.89648V58.6206H10.3448V55.1724Z" fill="white"/>
<path d="M13.793 55.1724H10.3447V58.6206H13.793V55.1724Z" fill="white"/>
<path d="M24.1377 55.1724H20.6895V58.6206H24.1377V55.1724Z" fill="white"/>
<path d="M31.0342 55.1724H27.5859V58.6206H31.0342V55.1724Z" fill="white"/>
<path d="M34.4825 55.1724H31.0342V58.6206H34.4825V55.1724Z" fill="white"/>
<path d="M37.9312 55.1724H34.4829V58.6206H37.9312V55.1724Z" fill="white"/>
<path d="M41.3794 55.1724H37.9312V58.6206H41.3794V55.1724Z" fill="white"/>
<path d="M44.8277 55.1724H41.3794V58.6206H44.8277V55.1724Z" fill="white"/>
<path d="M51.7242 55.1724H48.2759V58.6206H51.7242V55.1724Z" fill="white"/>
<path d="M55.1724 55.1724H51.7241V58.6206H55.1724V55.1724Z" fill="white"/>
<path d="M58.6206 55.1724H55.1724V58.6206H58.6206V55.1724Z" fill="white"/>
<path d="M62.0689 55.1724H58.6206V58.6206H62.0689V55.1724Z" fill="white"/>
<path d="M65.5171 55.1724H62.0688V58.6206H65.5171V55.1724Z" fill="white"/>
<path d="M72.4136 55.1724H68.9653V58.6206H72.4136V55.1724Z" fill="white"/>
<path d="M82.7588 55.1724H79.3105V58.6206H82.7588V55.1724Z" fill="white"/>
<path d="M86.2071 55.1724H82.7588V58.6206H86.2071V55.1724Z" fill="white"/>
<path d="M89.6553 55.1724H86.207V58.6206H89.6553V55.1724Z" fill="white"/>
<path d="M96.5518 55.1724H93.1035V58.6206H96.5518V55.1724Z" fill="white"/>
<path d="M100 55.1724H96.5518V58.6206H100V55.1724Z" fill="white"/>
<path d="M6.89652 58.6206H3.44824V62.0689H6.89652V58.6206Z" fill="white"/>
<path d="M10.3448 58.6206H6.89648V62.0689H10.3448V58.6206Z" fill="white"/>
<path d="M20.6895 58.6206H17.2412V62.0689H20.6895V58.6206Z" fill="white"/>
<path d="M31.0342 58.6206H27.5859V62.0689H31.0342V58.6206Z" fill="white"/>
<path d="M37.9312 58.6206H34.4829V62.0689H37.9312V58.6206Z" fill="white"/>
<path d="M58.6206 58.6206H55.1724V62.0689H58.6206V58.6206Z" fill="white"/>
<path d="M72.4136 58.6206H68.9653V62.0689H72.4136V58.6206Z" fill="white"/>
<path d="M75.8623 58.6206H72.4141V62.0689H75.8623V58.6206Z" fill="white"/>
<path d="M82.7588 58.6206H79.3105V62.0689H82.7588V58.6206Z" fill="white"/>
<path d="M89.6553 58.6206H86.207V62.0689H89.6553V58.6206Z" fill="white"/>
<path d="M3.44828 62.0688H0V65.5171H3.44828V62.0688Z" fill="white"/>
<path d="M17.2412 62.0688H13.793V65.5171H17.2412V62.0688Z" fill="white"/>
<path d="M24.1377 62.0688H20.6895V65.5171H24.1377V62.0688Z" fill="white"/>
<path d="M27.586 62.0688H24.1377V65.5171H27.586V62.0688Z" fill="white"/>
<path d="M44.8277 62.0688H41.3794V65.5171H44.8277V62.0688Z" fill="white"/>
<path d="M48.2759 62.0688H44.8276V65.5171H48.2759V62.0688Z" fill="white"/>
<path d="M51.7242 62.0688H48.2759V65.5171H51.7242V62.0688Z" fill="white"/>
<path d="M55.1724 62.0688H51.7241V65.5171H55.1724V62.0688Z" fill="white"/>
<path d="M58.6206 62.0688H55.1724V65.5171H58.6206V62.0688Z" fill="white"/>
<path d="M62.0689 62.0688H58.6206V65.5171H62.0689V62.0688Z" fill="white"/>
<path d="M79.3106 62.0688H75.8623V65.5171H79.3106V62.0688Z" fill="white"/>
<path d="M93.1036 62.0688H89.6553V65.5171H93.1036V62.0688Z" fill="white"/>
<path d="M10.3448 65.5171H6.89648V68.9654H10.3448V65.5171Z" fill="white"/>
<path d="M13.793 65.5171H10.3447V68.9654H13.793V65.5171Z" fill="white"/>
<path d="M31.0342 65.5171H27.5859V68.9654H31.0342V65.5171Z" fill="white"/>
<path d="M34.4825 65.5171H31.0342V68.9654H34.4825V65.5171Z" fill="white"/>
<path d="M48.2759 65.5171H44.8276V68.9654H48.2759V65.5171Z" fill="white"/>
<path d="M62.0689 65.5171H58.6206V68.9654H62.0689V65.5171Z" fill="white"/>
<path d="M65.5171 65.5171H62.0688V68.9654H65.5171V65.5171Z" fill="white"/>
<path d="M72.4136 65.5171H68.9653V68.9654H72.4136V65.5171Z" fill="white"/>
<path d="M75.8623 65.5171H72.4141V68.9654H75.8623V65.5171Z" fill="white"/>
<path d="M79.3106 65.5171H75.8623V68.9654H79.3106V65.5171Z" fill="white"/>
<path d="M93.1036 65.5171H89.6553V68.9654H93.1036V65.5171Z" fill="white"/>
<path d="M100 65.5171H96.5518V68.9654H100V65.5171Z" fill="white"/>
<path d="M6.89652 68.9656H3.44824V72.4138H6.89652V68.9656Z" fill="white"/>
<path d="M13.793 68.9656H10.3447V72.4138H13.793V68.9656Z" fill="white"/>
<path d="M24.1377 68.9656H20.6895V72.4138H24.1377V68.9656Z" fill="white"/>
<path d="M27.586 68.9656H24.1377V72.4138H27.586V68.9656Z" fill="white"/>
<path d="M31.0342 68.9656H27.5859V72.4138H31.0342V68.9656Z" fill="white"/>
<path d="M41.3794 68.9656H37.9312V72.4138H41.3794V68.9656Z" fill="white"/>
<path d="M48.2759 68.9656H44.8276V72.4138H48.2759V68.9656Z" fill="white"/>
<path d="M51.7242 68.9656H48.2759V72.4138H51.7242V68.9656Z" fill="white"/>
<path d="M62.0689 68.9656H58.6206V72.4138H62.0689V68.9656Z" fill="white"/>
<path d="M65.5171 68.9656H62.0688V72.4138H65.5171V68.9656Z" fill="white"/>
<path d="M68.9654 68.9656H65.5171V72.4138H68.9654V68.9656Z" fill="white"/>
<path d="M72.4136 68.9656H68.9653V72.4138H72.4136V68.9656Z" fill="white"/>
<path d="M75.8623 68.9656H72.4141V72.4138H75.8623V68.9656Z" fill="white"/>
<path d="M79.3106 68.9656H75.8623V72.4138H79.3106V68.9656Z" fill="white"/>
<path d="M82.7588 68.9656H79.3105V72.4138H82.7588V68.9656Z" fill="white"/>
<path d="M86.2071 68.9656H82.7588V72.4138H86.2071V68.9656Z" fill="white"/>
<path d="M93.1036 68.9656H89.6553V72.4138H93.1036V68.9656Z" fill="white"/>
<path d="M31.0342 72.4138H27.5859V75.8621H31.0342V72.4138Z" fill="white"/>
<path d="M34.4825 72.4138H31.0342V75.8621H34.4825V72.4138Z" fill="white"/>
<path d="M37.9312 72.4138H34.4829V75.8621H37.9312V72.4138Z" fill="white"/>
<path d="M48.2759 72.4138H44.8276V75.8621H48.2759V72.4138Z" fill="white"/>
<path d="M58.6206 72.4138H55.1724V75.8621H58.6206V72.4138Z" fill="white"/>
<path d="M65.5171 72.4138H62.0688V75.8621H65.5171V72.4138Z" fill="white"/>
<path d="M68.9654 72.4138H65.5171V75.8621H68.9654V72.4138Z" fill="white"/>
<path d="M72.4136 72.4138H68.9653V75.8621H72.4136V72.4138Z" fill="white"/>
<path d="M86.2071 72.4138H82.7588V75.8621H86.2071V72.4138Z" fill="white"/>
<path d="M89.6553 72.4138H86.207V75.8621H89.6553V72.4138Z" fill="white"/>
<path d="M96.5518 72.4138H93.1035V75.8621H96.5518V72.4138Z" fill="white"/>
<path d="M100 72.4138H96.5518V75.8621H100V72.4138Z" fill="white"/>
<path d="M37.9312 75.8621H34.4829V79.3103H37.9312V75.8621Z" fill="white"/>
<path d="M44.8277 75.8621H41.3794V79.3103H44.8277V75.8621Z" fill="white"/>
<path d="M48.2759 75.8621H44.8276V79.3103H48.2759V75.8621Z" fill="white"/>
<path d="M51.7242 75.8621H48.2759V79.3103H51.7242V75.8621Z" fill="white"/>
<path d="M62.0689 75.8621H58.6206V79.3103H62.0689V75.8621Z" fill="white"/>
<path d="M68.9654 75.8621H65.5171V79.3103H68.9654V75.8621Z" fill="white"/>
<path d="M72.4136 75.8621H68.9653V79.3103H72.4136V75.8621Z" fill="white"/>
<path d="M79.3106 75.8621H75.8623V79.3103H79.3106V75.8621Z" fill="white"/>
<path d="M86.2071 75.8621H82.7588V79.3103H86.2071V75.8621Z" fill="white"/>
<path d="M93.1036 75.8621H89.6553V79.3103H93.1036V75.8621Z" fill="white"/>
<path d="M96.5518 75.8621H93.1035V79.3103H96.5518V75.8621Z" fill="white"/>
<path d="M31.0342 79.3103H27.5859V82.7586H31.0342V79.3103Z" fill="white"/>
<path d="M37.9312 79.3103H34.4829V82.7586H37.9312V79.3103Z" fill="white"/>
<path d="M51.7242 79.3103H48.2759V82.7586H51.7242V79.3103Z" fill="white"/>
<path d="M55.1724 79.3103H51.7241V82.7586H55.1724V79.3103Z" fill="white"/>
<path d="M65.5171 79.3103H62.0688V82.7586H65.5171V79.3103Z" fill="white"/>
<path d="M72.4136 79.3103H68.9653V82.7586H72.4136V79.3103Z" fill="white"/>
<path d="M86.2071 79.3103H82.7588V82.7586H86.2071V79.3103Z" fill="white"/>
<path d="M100 79.3103H96.5518V82.7586H100V79.3103Z" fill="white"/>
<path d="M41.3794 82.7585H37.9312V86.2068H41.3794V82.7585Z" fill="white"/>
<path d="M48.2759 82.7585H44.8276V86.2068H48.2759V82.7585Z" fill="white"/>
<path d="M65.5171 82.7585H62.0688V86.2068H65.5171V82.7585Z" fill="white"/>
<path d="M72.4136 82.7585H68.9653V86.2068H72.4136V82.7585Z" fill="white"/>
<path d="M75.8623 82.7585H72.4141V86.2068H75.8623V82.7585Z" fill="white"/>
<path d="M79.3106 82.7585H75.8623V86.2068H79.3106V82.7585Z" fill="white"/>
<path d="M82.7588 82.7585H79.3105V86.2068H82.7588V82.7585Z" fill="white"/>
<path d="M86.2071 82.7585H82.7588V86.2068H86.2071V82.7585Z" fill="white"/>
<path d="M89.6553 82.7585H86.207V86.2068H89.6553V82.7585Z" fill="white"/>
<path d="M93.1036 82.7585H89.6553V86.2068H93.1036V82.7585Z" fill="white"/>
<path d="M31.0342 86.207H27.5859V89.6553H31.0342V86.207Z" fill="white"/>
<path d="M37.9312 86.207H34.4829V89.6553H37.9312V86.207Z" fill="white"/>
<path d="M44.8277 86.207H41.3794V89.6553H44.8277V86.207Z" fill="white"/>
<path d="M51.7242 86.207H48.2759V89.6553H51.7242V86.207Z" fill="white"/>
<path d="M58.6206 86.207H55.1724V89.6553H58.6206V86.207Z" fill="white"/>
<path d="M65.5171 86.207H62.0688V89.6553H65.5171V86.207Z" fill="white"/>
<path d="M68.9654 86.207H65.5171V89.6553H68.9654V86.207Z" fill="white"/>
<path d="M86.2071 86.207H82.7588V89.6553H86.2071V86.207Z" fill="white"/>
<path d="M89.6553 86.207H86.207V89.6553H89.6553V86.207Z" fill="white"/>
<path d="M93.1036 86.207H89.6553V89.6553H93.1036V86.207Z" fill="white"/>
<path d="M96.5518 86.207H93.1035V89.6553H96.5518V86.207Z" fill="white"/>
<path d="M31.0342 89.6553H27.5859V93.1036H31.0342V89.6553Z" fill="white"/>
<path d="M34.4825 89.6553H31.0342V93.1036H34.4825V89.6553Z" fill="white"/>
<path d="M41.3794 89.6553H37.9312V93.1036H41.3794V89.6553Z" fill="white"/>
<path d="M51.7242 89.6553H48.2759V93.1036H51.7242V89.6553Z" fill="white"/>
<path d="M55.1724 89.6553H51.7241V93.1036H55.1724V89.6553Z" fill="white"/>
<path d="M58.6206 89.6553H55.1724V93.1036H58.6206V89.6553Z" fill="white"/>
<path d="M62.0689 89.6553H58.6206V93.1036H62.0689V89.6553Z" fill="white"/>
<path d="M65.5171 89.6553H62.0688V93.1036H65.5171V89.6553Z" fill="white"/>
<path d="M72.4136 89.6553H68.9653V93.1036H72.4136V89.6553Z" fill="white"/>
<path d="M82.7588 89.6553H79.3105V93.1036H82.7588V89.6553Z" fill="white"/>
<path d="M89.6553 89.6553H86.207V93.1036H89.6553V89.6553Z" fill="white"/>
<path d="M100 89.6553H96.5518V93.1036H100V89.6553Z" fill="white"/>
<path d="M31.0342 93.1035H27.5859V96.5518H31.0342V93.1035Z" fill="white"/>
<path d="M44.8277 93.1035H41.3794V96.5518H44.8277V93.1035Z" fill="white"/>
<path d="M51.7242 93.1035H48.2759V96.5518H51.7242V93.1035Z" fill="white"/>
<path d="M58.6206 93.1035H55.1724V96.5518H58.6206V93.1035Z" fill="white"/>
<path d="M68.9654 93.1035H65.5171V96.5518H68.9654V93.1035Z" fill="white"/>
<path d="M72.4136 93.1035H68.9653V96.5518H72.4136V93.1035Z" fill="white"/>
<path d="M86.2071 93.1035H82.7588V96.5518H86.2071V93.1035Z" fill="white"/>
<path d="M96.5518 93.1035H93.1035V96.5518H96.5518V93.1035Z" fill="white"/>
<path d="M37.9312 96.5518H34.4829V100H37.9312V96.5518Z" fill="white"/>
<path d="M41.3794 96.5518H37.9312V100H41.3794V96.5518Z" fill="white"/>
<path d="M55.1724 96.5518H51.7241V100H55.1724V96.5518Z" fill="white"/>
<path d="M72.4136 96.5518H68.9653V100H72.4136V96.5518Z" fill="white"/>
<path d="M79.3106 96.5518H75.8623V100H79.3106V96.5518Z" fill="white"/>
<path d="M82.7588 96.5518H79.3105V100H82.7588V96.5518Z" fill="white"/>
<path d="M89.6553 96.5518H86.207V100H89.6553V96.5518Z" fill="white"/>
<path d="M96.5518 96.5518H93.1035V100H96.5518V96.5518Z" fill="white"/>
<path d="M18.9601 1.71875H5.16703C3.2626 1.71875 1.71875 3.2626 1.71875 5.16703V18.9601C1.71875 20.8646 3.2626 22.4084 5.16703 22.4084H18.9601C20.8646 22.4084 22.4084 20.8646 22.4084 18.9601V5.16703C22.4084 3.2626 20.8646 1.71875 18.9601 1.71875Z" stroke="white" stroke-width="0.5"/>
<path d="M8.61525 7.14111H15.5118C16.3259 7.14111 16.9859 7.80111 16.9859 8.61525V15.5118C16.9859 16.3259 16.3259 16.9859 15.5118 16.9859H8.61525C7.80111 16.9859 7.14111 16.3259 7.14111 15.5118V8.61525C7.14111 7.80111 7.80111 7.14111 8.61525 7.14111Z" fill="white" stroke="white" stroke-width="0.5"/>
<path d="M94.8332 1.71875H81.0401C79.1356 1.71875 77.5918 3.2626 77.5918 5.16703V18.9601C77.5918 20.8646 79.1356 22.4084 81.0401 22.4084H94.8332C96.7376 22.4084 98.2814 20.8646 98.2814 18.9601V5.16703C98.2814 3.2626 96.7376 1.71875 94.8332 1.71875Z" stroke="white" stroke-width="0.5"/>
<path d="M84.4883 7.14111H91.3848C92.199 7.14111 92.859 7.80111 92.859 8.61525V15.5118C92.859 16.3259 92.199 16.9859 91.3848 16.9859H84.4883C83.6742 16.9859 83.0142 16.3259 83.0142 15.5118V8.61525C83.0142 7.80111 83.6742 7.14111 84.4883 7.14111Z" fill="white" stroke="white" stroke-width="0.5"/>
<path d="M18.9601 77.5918H5.16703C3.2626 77.5918 1.71875 79.1356 1.71875 81.0401V94.8332C1.71875 96.7376 3.2626 98.2814 5.16703 98.2814H18.9601C20.8646 98.2814 22.4084 96.7376 22.4084 94.8332V81.0401C22.4084 79.1356 20.8646 77.5918 18.9601 77.5918Z" stroke="white" stroke-width="0.5"/>
<path d="M8.61525 83.0142H15.5118C16.3259 83.0142 16.9859 83.6742 16.9859 84.4883V91.3848C16.9859 92.199 16.3259 92.859 15.5118 92.859H8.61525C7.80111 92.859 7.14111 92.199 7.14111 91.3848V84.4883C7.14111 83.6742 7.80111 83.0142 8.61525 83.0142Z" fill="white" stroke="white" stroke-width="0.5"/>
</svg>
